<svg version="1.1" viewBox="0.0 0.0 960.0 720.0" fill="none" stroke="none" stroke-linecap="square" stroke-miterlimit="10" xmlns:xlink="http://www.w3.org/1999/xlink" xmlns="http://www.w3.org/2000/svg"><clipPath id="p.0"><path d="m0 0l960.0 0l0 720.0l-960.0 0l0 -720.0z" clip-rule="nonzero"/></clipPath><g clip-path="url(#p.0)"><path fill="#000000" fill-opacity="0.0" d="m0 0l960.0 0l0 720.0l-960.0 0z" fill-rule="evenodd"/><path fill="#999999" d="m336.49213 218.24147l277.88977 0l0 277.88977l-277.88977 0z" fill-rule="evenodd"/><path stroke="#000000" stroke-width="1.0" stroke-linejoin="round" stroke-linecap="butt" d="m336.49213 218.24147l277.88977 0l0 277.88977l-277.88977 0z" fill-rule="evenodd"/><path fill="#565656" d="m336.7034 366.59842l277.8898 0l0 98.92914l-277.8898 0z" fill-rule="evenodd"/><path fill="#565656" d="m336.7034 378.8064l17.163147 -25.262482l2.0181885 -57.543304l10.094757 14.034119l11.106659 -12.632538l3.0282288 50.527557l14.133026 30.876648z" fill-rule="evenodd"/><path fill="#565656" d="m384.7034 378.8064l17.163147 -25.262482l2.0181885 -57.543304l10.094757 14.034119l11.106659 -12.632538l3.0282288 50.527557l14.133026 30.876648z" fill-rule="evenodd"/><path fill="#565656" d="m440.7034 378.8064l17.163147 -25.262482l2.0181885 -57.543304l10.094757 14.034119l11.106659 -12.632538l3.0282288 50.527557l14.133026 30.876648z" fill-rule="evenodd"/><path fill="#565656" d="m488.7034 378.8064l17.163147 -25.262482l2.0181885 -57.543304l10.094757 14.034119l11.106689 -12.632538l3.0281982 50.527557l14.133057 30.876648z" fill-rule="evenodd"/><path fill="#565656" d="m544.7034 378.8064l17.163147 -25.262482l2.0181885 -57.543304l10.094727 14.034119l11.106689 -12.632538l3.0281982 50.527557l14.133057 30.876648z" fill-rule="evenodd"/><path fill="#666666" d="m336.49344 397.1942l277.88974 0l0 98.92914l-277.88974 0z" fill-rule="evenodd"/><path fill="#666666" d="m344.7034 409.4029l17.163147 -25.262482l2.0181885 -57.543304l10.094757 14.034119l11.106659 -12.632538l3.0282288 50.527557l14.133026 30.876648z" fill-rule="evenodd"/><path fill="#666666" d="m392.7034 409.4029l17.163147 -25.262482l2.0181885 -57.543304l10.094757 14.034119l11.106659 -12.632538l3.0282288 50.527557l14.133026 30.876648z" fill-rule="evenodd"/><path fill="#666666" d="m448.7034 409.4029l17.163147 -25.262482l2.0181885 -57.543304l10.094757 14.034119l11.106659 -12.632538l3.0282288 50.527557l14.133026 30.876648z" fill-rule="evenodd"/><path fill="#666666" d="m496.7034 409.4029l17.163177 -25.262482l2.0181885 -57.543304l10.094727 14.034119l11.106689 -12.632538l3.0281982 50.527557l14.133057 30.876648z" fill-rule="evenodd"/><path fill="#666666" d="m552.7034 409.4029l17.163147 -25.262482l2.0181885 -57.543304l10.094727 14.034119l11.106689 -12.632538l3.0281982 50.527557l14.133057 30.876648z" fill-rule="evenodd"/><path fill="#434343" d="m353.34036 258.21338l0 0c-0.23880005 -3.5670319 0.54519653 -7.0981903 2.0193176 -9.095062c1.4740906 -1.996872 3.3797913 -2.109253 4.9084167 -0.28944397l0 0c0.5414734 -2.0740356 1.5325317 -3.506012 2.6734314 -3.8627777c1.1408691 -0.356781 2.2975464 0.4035492 3.1201782 2.0509949l0 0c0.4612732 -1.8804474 1.3669739 -3.1438599 2.395752 -3.3419342c1.0287781 -0.19805908 2.0350037 0.6972656 2.6615906 2.3682556l0 0c0.833374 -1.9932709 2.1592712 -2.8325195 3.4039612 -2.154602c1.2447205 0.6779175 2.1846924 2.7512512 2.4131775 5.3228455l0 0c1.0209961 0.5661011 1.87146 2.005188 2.331665 3.945465c0.4602356 1.9402771 0.48501587 4.191391 0.067993164 6.1717377l0 0c1.0054016 2.6598206 1.2406006 6.20401 0.61779785 9.309906c-0.6227722 3.1059265 -2.0099792 5.306946 -3.6438904 5.7816772c-0.0115356445 2.9150085 -0.79800415 5.5897827 -2.056305 6.993347c-1.2583313 1.403595 -2.7919617 1.3167725 -4.009796 -0.22695923l0 0c-0.5187378 3.4912415 -1.9788208 6.0600586 -3.7494202 6.5966187c-1.7705994 0.53656006 -3.5343018 -1.0552673 -4.5291443 -4.0878296l0 0c-1.2194519 1.494751 -2.6827087 1.925354 -4.0596924 1.1946411c-1.3769531 -0.7307129 -2.5516357 -2.5611572 -3.2590637 -5.07843l0 0c-1.2461548 0.29641724 -2.4509888 -1.0159302 -3.016571 -3.2857666c-0.5656128 -2.269806 -0.371521 -5.0138855 0.48587036 -6.8703613l0 0c-1.1115723 -1.329895 -1.678772 -3.9688416 -1.4058228 -6.540741c0.27294922 -2.571869 1.3242188 -4.493927 2.6056213 -4.763855z" fill-rule="evenodd"/><path fill="#000000" fill-opacity="0.0" d="m352.11594 269.65543l0 0c0.52456665 0.627594 1.1305542 0.91226196 1.7366333 0.8158264m0.7937927 9.340546c0.26062012 -0.0619812 0.51608276 -0.19326782 0.75979614 -0.3904419m6.5585938 4.2740784c-0.18328857 -0.55877686 -0.33676147 -1.1558838 -0.4577942 -1.7811279m8.736694 -0.7277832l0 0c0.094573975 -0.6365051 0.15582275 -1.2915955 0.1828003 -1.9543457m5.8830566 -4.811798c0.012268066 -3.1034546 -0.85491943 -5.945038 -2.229065 -7.3041687m5.2551575 -7.787079c-0.22253418 1.0567932 -0.5622864 1.9942627 -0.9925537 2.7388916m-1.4069214 -12.856369l0 0c0.037902832 0.4267578 0.05545044 0.8599243 0.05239868 1.2935028m-5.8694153 -4.461609l0 0c-0.20788574 0.4972229 -0.3791504 1.0528564 -0.5084839 1.6496124m-4.5489197 -0.67614746l0 0c-0.11077881 0.45161438 -0.19351196 0.9295044 -0.24627686 1.4226685m-5.5474243 0.38912964l0 0c0.3234558 0.3850708 0.62268066 0.8485565 0.8911438 1.380249m-7.8187866 8.004318l0 0c0.032928467 0.49163818 0.08493042 0.97720337 0.15551758 1.452179" fill-rule="evenodd"/><path fill="#434343" d="m371.08942 271.90887l0 0c0.4887085 -3.5413208 1.9717712 -6.8403625 3.8199158 -8.497223c1.848114 -1.6568604 3.7371826 -1.3809509 4.8655396 0.71066284l0 0c0.95043945 -1.9212952 2.2110596 -3.1228027 3.4006348 -3.2411194c1.1895752 -0.11831665 2.168335 0.86050415 2.6402283 2.6403198l0 0c0.8326416 -1.7479553 1.9755554 -2.8016968 3.0231934 -2.787323c1.0476074 0.014404297 1.851654 1.0949097 2.126831 2.8581238l0 0c1.2199097 -1.783081 2.688385 -2.3363953 3.77005 -1.4204712c1.0816345 0.9159241 1.5821838 3.1365662 1.2850342 5.7010193l0 0c0.8852234 0.7611389 1.4266052 2.3425903 1.4842834 4.3357544c0.057647705 1.9931946 -0.37405396 4.2025757 -1.1835938 6.0573425l0 0c0.4458313 2.808197 -0.041778564 6.3263855 -1.2808228 9.241669c-1.2390747 2.9152832 -3.0434265 4.7896423 -4.739746 4.9236145c-0.6017456 2.8521118 -1.9137878 5.3120728 -3.4303894 6.4316406c-1.5166016 1.1195679 -3.000946 0.7239685 -3.8809204 -1.0343628l0 0c-1.21521 3.3136597 -3.1654358 5.5334167 -5.0081177 5.7002563c-1.8426819 0.1668396 -3.2474976 -1.7491455 -3.607483 -4.9201965l0 0c-1.4970398 1.2167358 -3.017273 1.342041 -4.217743 0.34765625c-1.2005005 -0.9944153 -1.9801025 -3.0247498 -2.1629944 -5.633026l0 0c-1.280426 0.037902832 -2.194519 -1.4912109 -2.2886353 -3.8284607c-0.09411621 -2.3372192 0.65179443 -4.985016 1.8675232 -6.6292725l0 0c-0.81921387 -1.5274048 -0.8401184 -4.22641 -0.051849365 -6.6896057c0.78829956 -2.4631653 2.2071838 -4.1323853 3.5167542 -4.1371765z" fill-rule="evenodd"/><path fill="#000000" fill-opacity="0.0" d="m367.57257 282.8653l0 0c0.38659668 0.72076416 0.9223938 1.1222839 1.5354614 1.1506042m-1.114685 9.307312c0.26782227 -0.00793457 0.5445862 -0.084747314 0.82321167 -0.2284851m5.5572205 5.513611c-0.066345215 -0.58428955 -0.09567261 -1.2000732 -0.08755493 -1.836853m8.703491 1.0567627l0 0c0.22155762 -0.604126 0.4142456 -1.2332153 0.57489014 -1.87677m6.736145 -3.5203552c0.6406555 -3.0365295 0.3670044 -5.9947205 -0.70339966 -7.6039124m6.723877 -6.561035c-0.43200684 0.9897766 -0.95462036 1.8389587 -1.526825 2.4809875m1.2263794 -12.874298l0 0c-0.049316406 0.42556763 -0.11987305 0.853302 -0.21069336 1.2772522m-4.8442993 -5.557678l0 0c-0.3043213 0.4447937 -0.5845947 0.95422363 -0.8321228 1.5123901m-4.317932 -1.5834045l0 0c-0.19998169 0.41983032 -0.3777771 0.8710327 -0.5293579 1.3432617m-5.511566 -0.74246216l0 0c0.23876953 0.44259644 0.43792725 0.95703125 0.59313965 1.532074m-9.278534 6.2545776l0 0c-0.067352295 0.48806763 -0.11477661 0.9740906 -0.1418457 1.4534912" fill-rule="evenodd"/><path fill="#434343" d="m372.88208 243.25795l0 0c0.4887085 -3.5413208 1.9717712 -6.8403625 3.8198853 -8.497223c1.8481445 -1.6568451 3.7371826 -1.3809357 4.86557 0.71066284l0 0c0.95040894 -1.9212952 2.2110596 -3.1228027 3.4006348 -3.2411041c1.1895447 -0.11831665 2.1683044 0.8604889 2.6401978 2.6403198l0 0c0.8326721 -1.7479706 1.9755859 -2.801712 3.0231934 -2.787323c1.0476379 0.014404297 1.8516846 1.0949097 2.1268616 2.8581085l0 0c1.2198792 -1.783081 2.688385 -2.33638 3.7700195 -1.4204559c1.081665 0.9159241 1.5822144 3.1365662 1.2850647 5.7010193l0 0c0.8852234 0.76112366 1.4266052 2.342575 1.4842529 4.3357544c0.057678223 1.9931793 -0.37402344 4.2025604 -1.1835632 6.0573273l0 0c0.44580078 2.808197 -0.041778564 6.3264008 -1.2808533 9.241684c-1.2390442 2.9152527 -3.043396 4.789612 -4.7397156 4.923584c-0.6017456 2.8521423 -1.9137878 5.3120728 -3.4303894 6.431671c-1.5166321 1.1195679 -3.0009766 0.7239685 -3.8809204 -1.0343628l0 0c-1.21521 3.3136597 -3.1654663 5.5334167 -5.008148 5.7002563c-1.8426819 0.1668396 -3.247467 -1.7491455 -3.6074524 -4.9201965l0 0c-1.4970398 1.2167358 -3.017273 1.342041 -4.2177734 0.34762573c-1.20047 -0.99438477 -1.9801025 -3.0247192 -2.1629639 -5.6329956l0 0c-1.280426 0.037872314 -2.194519 -1.4912415 -2.2886353 -3.8284607c-0.09411621 -2.3372192 0.65179443 -4.985016 1.8675232 -6.6292877l0 0c-0.81921387 -1.5273895 -0.8401489 -4.2263947 -0.051849365 -6.6895905c0.78829956 -2.4631958 2.2071533 -4.1324005 3.5167236 -4.137192z" fill-rule="evenodd"/><path fill="#000000" fill-opacity="0.0" d="m369.36523 254.21437l0 0c0.38659668 0.7207794 0.9223938 1.1222839 1.5354309 1.1506042m-1.1146545 9.307327c0.26779175 -0.00793457 0.5445862 -0.084747314 0.82318115 -0.2284851m5.557251 5.513611c-0.066345215 -0.58428955 -0.095703125 -1.2000732 -0.08755493 -1.836853m8.703461 1.0567627l0 0c0.22155762 -0.604126 0.41427612 -1.2332153 0.57492065 -1.87677m6.736145 -3.5203552c0.6406555 -3.0365295 0.3670044 -5.9947205 -0.7034302 -7.603943m6.723877 -6.56102c-0.43200684 0.9897766 -0.95458984 1.838974 -1.526825 2.4809875m1.2264099 -12.874298l0 0c-0.049316406 0.4255829 -0.11987305 0.853302 -0.21069336 1.2772675m-4.84433 -5.557678l0 0c-0.30429077 0.4447937 -0.5845642 0.9542084 -0.8320923 1.5123749m-4.317932 -1.5833893l0 0c-0.19998169 0.41981506 -0.37780762 0.8710327 -0.5293579 1.3432617m-5.511566 -0.74246216l0 0c0.23873901 0.44258118 0.43792725 0.95703125 0.59310913 1.5320587m-9.278503 6.2545776l0 0c-0.067352295 0.4880829 -0.11477661 0.97410583 -0.1418457 1.4534912" fill-rule="evenodd"/><path fill="#434343" d="m398.35873 273.4037l0 0c-0.23876953 -3.567047 0.54522705 -7.0982056 2.0193176 -9.095093c1.4740906 -1.9968567 3.3797913 -2.109253 4.9084167 -0.2894287l0 0c0.5414734 -2.0740356 1.5325317 -3.506012 2.6734314 -3.862793c1.1408691 -0.3567505 2.2975464 0.40356445 3.1201782 2.0510254l0 0c0.4612732 -1.8804626 1.3670044 -3.1438904 2.395752 -3.3419495c1.0287781 -0.19805908 2.0350037 0.6972656 2.661621 2.3682556l0 0c0.8333435 -1.9932556 2.1592407 -2.8325195 3.4039307 -2.154602c1.2447205 0.6779175 2.1846924 2.7512512 2.4131775 5.3228455l0 0c1.0209961 0.5661011 1.87146 2.005188 2.331665 3.945465c0.4602356 1.9402771 0.48501587 4.1913757 0.067993164 6.1717224l0 0c1.0054016 2.6598206 1.2406006 6.20401 0.61779785 9.309937c-0.6227722 3.105896 -2.0099792 5.3069153 -3.6438904 5.7816467c-0.011505127 2.915039 -0.79800415 5.589813 -2.056305 6.9933777c-1.2583008 1.4035645 -2.7919617 1.316742 -4.009796 -0.22698975l0 0c-0.5187378 3.4912415 -1.9788208 6.0600586 -3.7494202 6.5966187c-1.7705994 0.5365906 -3.5343018 -1.0552673 -4.5291443 -4.087799l0 0c-1.2194519 1.494751 -2.6827087 1.9253235 -4.0596924 1.1946106c-1.3769531 -0.7306824 -2.5516357 -2.5611267 -3.2590637 -5.0783997l0 0c-1.2461548 0.29641724 -2.4509888 -1.0159607 -3.016571 -3.2857666c-0.5655823 -2.2698364 -0.371521 -5.013916 0.48587036 -6.870392l0 0c-1.1115723 -1.329895 -1.678772 -3.9688416 -1.4058228 -6.5407104c0.27294922 -2.5718994 1.3242188 -4.493927 2.6056213 -4.763855z" fill-rule="evenodd"/><path fill="#000000" fill-opacity="0.0" d="m397.1343 284.84573l0 0c0.52456665 0.6275635 1.1305542 0.91226196 1.7366333 0.8158264m0.7937927 9.340546c0.26062012 -0.06201172 0.51608276 -0.19326782 0.75979614 -0.3904724m6.5586243 4.2740784c-0.18331909 -0.55877686 -0.336792 -1.1558533 -0.4578247 -1.7810974m8.736694 -0.7277832l0 0c0.094573975 -0.6365051 0.15585327 -1.2915955 0.1828003 -1.9543762m5.8830566 -4.8117676c0.012268066 -3.103485 -0.85491943 -5.9450684 -2.229065 -7.304199m5.2551575 -7.787079c-0.22253418 1.0567932 -0.5622864 1.9942627 -0.9925537 2.738922m-1.4069214 -12.856384l0 0c0.037902832 0.4267578 0.05545044 0.8599243 0.05239868 1.2935181m-5.8694153 -4.4616394l0 0c-0.20788574 0.4972229 -0.3791504 1.0528564 -0.5084839 1.6496277m-4.5489197 -0.67614746l0 0c-0.11077881 0.45159912 -0.19351196 0.9295044 -0.24627686 1.4226685m-5.5474243 0.38912964l0 0c0.3234558 0.3850708 0.62268066 0.84854126 0.8911438 1.380249m-7.8187866 8.0043335l0 0c0.032928467 0.49160767 0.08493042 0.97720337 0.15551758 1.4521484" fill-rule="evenodd"/><path fill="#434343" d="m416.1078 287.09915l0 0c0.4887085 -3.5413208 1.9718018 -6.8403625 3.8199158 -8.497223c1.848114 -1.6568298 3.7371826 -1.3809204 4.86557 0.71066284l0 0c0.95040894 -1.9212952 2.2110596 -3.1228027 3.4006042 -3.2411194c1.1895752 -0.11828613 2.168335 0.86050415 2.6402283 2.6403503l0 0c0.8326416 -1.7479858 1.9755554 -2.8017273 3.0231934 -2.787323c1.0476074 0.014404297 1.851654 1.0949097 2.126831 2.8580933l0 0c1.2199097 -1.783081 2.688385 -2.3363647 3.77005 -1.4204407c1.0816345 0.9159241 1.5821838 3.1365662 1.2850342 5.7010193l0 0c0.8852234 0.7611084 1.4266052 2.3425598 1.4842834 4.3357544c0.057678223 1.9931641 -0.37405396 4.202545 -1.1835938 6.057312l0 0c0.4458313 2.808197 -0.041778564 6.3263855 -1.2808228 9.241669c-1.2390747 2.9152832 -3.0434265 4.7896423 -4.739746 4.9236145c-0.6017456 2.8521423 -1.9137878 5.3120728 -3.4303894 6.4316406c-1.5166016 1.1195984 -3.000946 0.7239685 -3.8809204 -1.0343323l0 0c-1.21521 3.3136597 -3.1654358 5.5334167 -5.0081177 5.7002563c-1.8426819 0.1668396 -3.2474976 -1.749176 -3.607483 -4.9201965l0 0c-1.4970398 1.2167358 -3.017273 1.3420105 -4.217743 0.34762573c-1.2005005 -0.9944153 -1.9801025 -3.0247498 -2.1629944 -5.6329956l0 0c-1.280426 0.037872314 -2.194519 -1.4912415 -2.2886353 -3.8284607c-0.09411621 -2.3372192 0.65179443 -4.985016 1.8675232 -6.629303l0 0c-0.81921387 -1.5273743 -0.8401184 -4.2263794 -0.051849365 -6.689575c0.78829956 -2.4631958 2.2071838 -4.132416 3.5167542 -4.137207z" fill-rule="evenodd"/><path fill="#000000" fill-opacity="0.0" d="m412.59094 298.05557l0 0c0.38659668 0.7207947 0.9223938 1.1222839 1.5354614 1.1506042m-1.114685 9.307312c0.26782227 -0.007904053 0.5445862 -0.084747314 0.82321167 -0.22845459m5.5572205 5.513611c-0.066345215 -0.58432007 -0.09567261 -1.2001038 -0.08755493 -1.836853m8.703491 1.0567322l0 0c0.22155762 -0.604126 0.4142456 -1.2332153 0.57489014 -1.8767395m6.736145 -3.5203552c0.6406555 -3.03656 0.3670044 -5.9947205 -0.70339966 -7.603943m6.723877 -6.561035c-0.43200684 0.9897766 -0.95462036 1.8389587 -1.526825 2.4809875m1.2263794 -12.874298l0 0c-0.04928589 0.42559814 -0.11987305 0.853302 -0.21069336 1.2772827m-4.8442993 -5.557678l0 0c-0.3043213 0.4447937 -0.5845947 0.9541931 -0.8321228 1.5123596m-4.317932 -1.583374l0 0c-0.19995117 0.4197998 -0.3777771 0.8710022 -0.5293579 1.3432312m-5.511566 -0.74243164l0 0c0.23876953 0.44256592 0.43792725 0.95703125 0.59313965 1.5320435m-9.278534 6.2545776l0 0c-0.067352295 0.48809814 -0.11477661 0.9740906 -0.1418457 1.4534912" fill-rule="evenodd"/><path fill="#434343" d="m417.90045 258.44824l0 0c0.4887085 -3.541336 1.9717712 -6.8403625 3.8198853 -8.497223c1.8481445 -1.6568451 3.7371826 -1.3809357 4.86557 0.71066284l0 0c0.95040894 -1.9212952 2.2110596 -3.1228027 3.4006348 -3.2411194c1.1895447 -0.11830139 2.1683044 0.86050415 2.6401978 2.640335l0 0c0.8326721 -1.7479706 1.9755859 -2.8017273 3.0231934 -2.787323c1.0476379 0.014404297 1.8516846 1.0949097 2.1268616 2.8581085l0 0c1.2198792 -1.7830963 2.688385 -2.33638 3.7700195 -1.4204559c1.081665 0.9159241 1.5822144 3.136551 1.2850647 5.7010193l0 0c0.8852234 0.76112366 1.4266052 2.342575 1.4842529 4.335739c0.057678223 1.9931946 -0.37402344 4.2025757 -1.1835632 6.0573425l0 0c0.44580078 2.808197 -0.041778564 6.3263855 -1.2808533 9.241669c-1.2390442 2.9152832 -3.043396 4.7896423 -4.7397156 4.9236145c-0.6017456 2.8521118 -1.9137878 5.3120728 -3.4303894 6.4316406c-1.5166321 1.1195679 -3.0009766 0.7239685 -3.8809204 -1.0343323l0 0c-1.21521 3.3136597 -3.1654663 5.5334167 -5.008148 5.700226c-1.8426819 0.1668396 -3.247467 -1.7491455 -3.6074524 -4.9201965l0 0c-1.4970398 1.2167358 -3.017273 1.342041 -4.217743 0.34765625c-1.2005005 -0.9944153 -1.980133 -3.0247498 -2.1629944 -5.6329956l0 0c-1.280426 0.037872314 -2.194519 -1.4912415 -2.2886353 -3.8284912c-0.09411621 -2.3372192 0.65179443 -4.985016 1.8675232 -6.6292725l0 0c-0.81921387 -1.5274048 -0.8401489 -4.22641 -0.051849365 -6.6896057c0.78829956 -2.4631653 2.2071533 -4.1323853 3.5167236 -4.1371765z" fill-rule="evenodd"/><path fill="#000000" fill-opacity="0.0" d="m414.3836 269.40466l0 0c0.38659668 0.7207947 0.9223938 1.1222839 1.5354309 1.1506042m-1.1146545 9.307312c0.26779175 -0.00793457 0.5445862 -0.084747314 0.82318115 -0.2284851m5.557251 5.513611c-0.066345215 -0.58428955 -0.095703125 -1.2000732 -0.08755493 -1.836853m8.703461 1.0567627l0 0c0.22155762 -0.604126 0.41427612 -1.2332153 0.57492065 -1.87677m6.736145 -3.5203552c0.6406555 -3.0365295 0.3670044 -5.9947205 -0.70339966 -7.6039124m6.7238464 -6.561035c-0.43200684 0.9897766 -0.95458984 1.8389587 -1.526825 2.4809875m1.2264099 -12.874298l0 0c-0.049316406 0.42556763 -0.11987305 0.853302 -0.21069336 1.2772522m-4.84433 -5.557663l0 0c-0.30429077 0.4447937 -0.5845642 0.9542084 -0.8320923 1.5123749m-4.317932 -1.5833893l0 0c-0.19998169 0.4197998 -0.37780762 0.87101746 -0.5293579 1.3432465m-5.511566 -0.7424469l0 0c0.23873901 0.44258118 0.43792725 0.95703125 0.59310913 1.5320587m-9.278503 6.2545776l0 0c-0.067352295 0.48806763 -0.11477661 0.9740906 -0.1418457 1.4534912" fill-rule="evenodd"/><path fill="#434343" d="m450.35873 287.72913l0 0c-0.23876953 -3.567047 0.54522705 -7.0982056 2.0193176 -9.095062c1.4740906 -1.9968872 3.3797913 -2.109253 4.9084167 -0.28945923l0 0c0.5414734 -2.0740051 1.5325317 -3.5059814 2.6734314 -3.8627625c1.1408691 -0.356781 2.2975464 0.40356445 3.1201782 2.0509949l0 0c0.4612732 -1.8804321 1.3670044 -3.1438599 2.395752 -3.341919c1.0287781 -0.19805908 2.0350037 0.6972351 2.661621 2.3682556l0 0c0.8333435 -1.9932861 2.1592407 -2.8325195 3.4039307 -2.154602c1.2447205 0.6779175 2.1846924 2.7512207 2.4131775 5.322815l0 0c1.0209961 0.5661011 1.87146 2.0052185 2.331665 3.945465c0.4602356 1.9402771 0.48501587 4.1914062 0.067993164 6.171753l0 0c1.0054016 2.6598206 1.2406006 6.20401 0.61779785 9.309906c-0.6227722 3.1059265 -2.0099792 5.306946 -3.6438904 5.7816772c-0.011505127 2.9150085 -0.79800415 5.5897827 -2.056305 6.993347c-1.2583008 1.403595 -2.7919617 1.3167725 -4.009796 -0.22695923l0 0c-0.5187378 3.4912415 -1.9788208 6.0600586 -3.7494202 6.5966187c-1.7705994 0.5365906 -3.5343018 -1.0552673 -4.5291443 -4.0878296l0 0c-1.2194519 1.494751 -2.6827087 1.925354 -4.0596924 1.1946411c-1.3769531 -0.7307129 -2.5516357 -2.5611572 -3.2590637 -5.07843l0 0c-1.2461548 0.29641724 -2.4509888 -1.0159302 -3.016571 -3.2857666c-0.5655823 -2.269806 -0.371521 -5.0138855 0.48587036 -6.8703613l0 0c-1.1115723 -1.329895 -1.678772 -3.9688416 -1.4058228 -6.540741c0.27294922 -2.571869 1.3242188 -4.493927 2.6056213 -4.763855z" fill-rule="evenodd"/><path fill="#000000" fill-opacity="0.0" d="m449.1343 299.17117l0 0c0.52456665 0.627594 1.1305542 0.91226196 1.7366333 0.8158264m0.7937927 9.340546c0.26062012 -0.0619812 0.51608276 -0.19326782 0.75979614 -0.3904419m6.5586243 4.2740784c-0.18331909 -0.55877686 -0.336792 -1.1558838 -0.4578247 -1.7811279m8.736694 -0.7277832l0 0c0.094573975 -0.6365051 0.15585327 -1.2915955 0.1828003 -1.9543457m5.8830566 -4.811798c0.012268066 -3.1034546 -0.85491943 -5.945038 -2.229065 -7.3041687m5.2551575 -7.787079c-0.22253418 1.0567932 -0.5622864 1.9942627 -0.9925537 2.7388916m-1.4069214 -12.856384l0 0c0.037902832 0.4267578 0.05545044 0.85995483 0.05239868 1.2935181m-5.8694153 -4.461609l0 0c-0.20788574 0.4972229 -0.3791504 1.0528564 -0.5084839 1.6495972m-4.5489197 -0.67614746l0 0c-0.11077881 0.45162964 -0.19351196 0.9295349 -0.24627686 1.422699m-5.5474243 0.38912964l0 0c0.3234558 0.3850708 0.62268066 0.84854126 0.8911438 1.3802185m-7.8187866 8.0043335l0 0c0.032928467 0.49163818 0.08493042 0.97720337 0.15551758 1.452179" fill-rule="evenodd"/><path fill="#434343" d="m468.1078 301.42462l0 0c0.4887085 -3.5413208 1.9718018 -6.8403625 3.8199158 -8.497223c1.848114 -1.6568604 3.7371826 -1.3809509 4.86557 0.71066284l0 0c0.95040894 -1.9212952 2.2110596 -3.1228027 3.4006042 -3.2411194c1.1895752 -0.11831665 2.168335 0.86050415 2.6402283 2.6403198l0 0c0.8326416 -1.7479553 1.9755554 -2.8016968 3.0231934 -2.787323c1.0476074 0.014404297 1.851654 1.0949402 2.126831 2.8581238l0 0c1.2199097 -1.783081 2.688385 -2.3363953 3.77005 -1.4204712c1.0816345 0.9159546 1.5821838 3.1365662 1.2850342 5.7010193l0 0c0.8852234 0.7611389 1.4266052 2.3425903 1.4842834 4.3357544c0.057678223 1.9931946 -0.37405396 4.2025757 -1.1835938 6.0573425l0 0c0.4458313 2.808197 -0.041778564 6.3263855 -1.2808228 9.241669c-1.2390747 2.9152832 -3.0434265 4.7896423 -4.739746 4.9236145c-0.6017456 2.8521118 -1.9137878 5.3120728 -3.4303894 6.4316406c-1.5166016 1.1195679 -3.000946 0.7239685 -3.8809204 -1.0343628l0 0c-1.21521 3.3136902 -3.1654358 5.5334473 -5.0081177 5.7002563c-1.8426819 0.1668396 -3.2474976 -1.7491455 -3.607483 -4.9201965l0 0c-1.4970398 1.2167358 -3.017273 1.342041 -4.217743 0.34765625c-1.2005005 -0.9944153 -1.9801025 -3.0247498 -2.1629944 -5.633026l0 0c-1.280426 0.037902832 -2.194519 -1.4912109 -2.2886353 -3.8284607c-0.09411621 -2.3372192 0.65179443 -4.985016 1.8675232 -6.6292725l0 0c-0.81921387 -1.5274048 -0.8401184 -4.22641 -0.051849365 -6.6896057c0.78829956 -2.4631653 2.2071838 -4.1323853 3.5167542 -4.1371765z" fill-rule="evenodd"/><path fill="#000000" fill-opacity="0.0" d="m464.59094 312.38104l0 0c0.38659668 0.7207947 0.9223938 1.1222839 1.5354614 1.1506042m-1.114685 9.307312c0.26782227 -0.00793457 0.5445862 -0.084747314 0.82321167 -0.2284851m5.5572205 5.513611c-0.066345215 -0.58428955 -0.09567261 -1.2000732 -0.08755493 -1.836853m8.703491 1.0567627l0 0c0.22155762 -0.604126 0.4142456 -1.2332153 0.57489014 -1.87677m6.736145 -3.5203552c0.6406555 -3.0365295 0.3670044 -5.9947205 -0.70339966 -7.6039124m6.723877 -6.561035c-0.43200684 0.9897766 -0.95462036 1.8389587 -1.526825 2.4809875m1.2263794 -12.874298l0 0c-0.04928589 0.42556763 -0.11987305 0.853302 -0.21069336 1.2772522m-4.8442993 -5.557678l0 0c-0.3043213 0.4447937 -0.5845947 0.95422363 -0.8321228 1.5123901m-4.317932 -1.5834045l0 0c-0.19995117 0.41983032 -0.3777771 0.8710327 -0.5293579 1.3432617m-5.511566 -0.74243164l0 0c0.23876953 0.44256592 0.43792725 0.95703125 0.59313965 1.5320435m-9.278534 6.2545776l0 0c-0.067352295 0.48806763 -0.11477661 0.9740906 -0.1418457 1.4534912" fill-rule="evenodd"/><path fill="#434343" d="m469.90045 272.77368l0 0c0.4887085 -3.5413208 1.9717712 -6.8403625 3.8198853 -8.497192c1.8481445 -1.6568604 3.7371826 -1.3809509 4.86557 0.7106323l0 0c0.95040894 -1.9212646 2.2110596 -3.1228027 3.4006348 -3.2410889c1.1895447 -0.11831665 2.1683044 0.86047363 2.6401978 2.6403198l0 0c0.8326721 -1.7479858 1.9755859 -2.8017273 3.0231934 -2.787323c1.0476379 0.014404297 1.8516846 1.0949097 2.1268616 2.8581238l0 0c1.2198792 -1.7831116 2.688385 -2.3363953 3.7700195 -1.4204712c1.081665 0.9159241 1.5822144 3.1365662 1.2850647 5.7010193l0 0c0.8852234 0.7611084 1.4266052 2.3425598 1.4842529 4.3357544c0.057678223 1.9931946 -0.37402344 4.2025757 -1.1835632 6.057312l0 0c0.44580078 2.808197 -0.041778564 6.326416 -1.2808533 9.241699c-1.2390442 2.9152527 -3.043396 4.789612 -4.7397156 4.923584c-0.6017456 2.8521423 -1.9137878 5.3120728 -3.4303894 6.431671c-1.5166321 1.1195679 -3.0009766 0.7239685 -3.8809204 -1.0343628l0 0c-1.21521 3.3136597 -3.1654663 5.5334167 -5.008148 5.7002563c-1.8426819 0.1668396 -3.247467 -1.7491455 -3.6074524 -4.9201965l0 0c-1.4970398 1.2167358 -3.017273 1.342041 -4.217743 0.34762573c-1.2005005 -0.99438477 -1.980133 -3.0247192 -2.1629944 -5.6329956l0 0c-1.280426 0.037902832 -2.194519 -1.4912415 -2.2886353 -3.8284607c-0.09411621 -2.3372192 0.65179443 -4.985016 1.8675232 -6.6292725l0 0c-0.81921387 -1.5274048 -0.8401489 -4.22641 -0.051849365 -6.6896057c0.78829956 -2.4631958 2.2071533 -4.1323853 3.5167236 -4.137207z" fill-rule="evenodd"/><path fill="#000000" fill-opacity="0.0" d="m466.3836 283.73013l0 0c0.38659668 0.72076416 0.9223938 1.1222839 1.5354309 1.1505737m-1.1146545 9.307343c0.26779175 -0.00793457 0.5445862 -0.084747314 0.82318115 -0.2284851m5.557251 5.513611c-0.066345215 -0.58428955 -0.095703125 -1.2000732 -0.08755493 -1.836853m8.703461 1.0567627l0 0c0.22155762 -0.604126 0.41427612 -1.2332153 0.57492065 -1.87677m6.736145 -3.5203552c0.6406555 -3.0365295 0.3670044 -5.9947205 -0.70339966 -7.6039124m6.7238464 -6.561035c-0.43200684 0.9897766 -0.95458984 1.8389587 -1.526825 2.4809875m1.2264099 -12.874298l0 0c-0.049316406 0.42556763 -0.11987305 0.853302 -0.21069336 1.2772522m-4.84433 -5.557678l0 0c-0.30429077 0.4447937 -0.5845642 0.95422363 -0.8320923 1.5123901m-4.317932 -1.5834045l0 0c-0.19998169 0.4197998 -0.37780762 0.8710327 -0.5293579 1.3432617m-5.511566 -0.74246216l0 0c0.23873901 0.44259644 0.43792725 0.95703125 0.59310913 1.5320435m-9.278503 6.2545776l0 0c-0.067352295 0.48809814 -0.11477661 0.9741211 -0.1418457 1.4535217" fill-rule="evenodd"/><path fill="#434343" d="m494.35873 273.4037l0 0c-0.23876953 -3.567047 0.54522705 -7.0982056 2.0193176 -9.095093c1.4740906 -1.9968567 3.3797913 -2.109253 4.9084167 -0.2894287l0 0c0.5414734 -2.0740356 1.5325317 -3.506012 2.6734314 -3.862793c1.1408691 -0.3567505 2.2975464 0.40356445 3.1201782 2.0510254l0 0c0.4612732 -1.8804626 1.3670044 -3.1438904 2.395752 -3.3419495c1.0287781 -0.19805908 2.0350037 0.6972656 2.661621 2.3682556l0 0c0.833313 -1.9932556 2.1592407 -2.8325195 3.4039307 -2.154602c1.24469 0.6779175 2.1846924 2.7512512 2.413147 5.3228455l0 0c1.0209961 0.5661011 1.871521 2.005188 2.331726 3.945465c0.46020508 1.9402771 0.48498535 4.1913757 0.067993164 6.1717224l0 0c1.0053711 2.6598206 1.2405396 6.20401 0.61779785 9.309937c-0.62280273 3.105896 -2.0100098 5.3069153 -3.643921 5.7816467c-0.0115356445 2.915039 -0.79803467 5.589813 -2.0563354 6.9933777c-1.2583008 1.4035645 -2.7919312 1.316742 -4.0097656 -0.22698975l0 0c-0.5187378 3.4912415 -1.9788208 6.0600586 -3.7494202 6.5966187c-1.7705994 0.5365906 -3.5343018 -1.0552673 -4.5291443 -4.087799l0 0c-1.2194519 1.494751 -2.6827087 1.9253235 -4.0596924 1.1946106c-1.3769531 -0.7306824 -2.5516357 -2.5611267 -3.2590637 -5.0783997l0 0c-1.2461548 0.29641724 -2.4509888 -1.0159607 -3.016571 -3.2857666c-0.5655823 -2.2698364 -0.371521 -5.013916 0.48587036 -6.870392l0 0c-1.1115723 -1.329895 -1.678772 -3.9688416 -1.4058228 -6.5407104c0.27294922 -2.5718994 1.3242188 -4.493927 2.6056213 -4.763855z" fill-rule="evenodd"/><path fill="#000000" fill-opacity="0.0" d="m493.1343 284.84573l0 0c0.52456665 0.6275635 1.1305542 0.91226196 1.7366333 0.8158264m0.7937927 9.340546c0.26062012 -0.06201172 0.51608276 -0.19326782 0.75979614 -0.3904724m6.5586243 4.2740784c-0.18331909 -0.55877686 -0.336792 -1.1558533 -0.4578247 -1.7810974m8.736694 -0.7277832l0 0c0.094573975 -0.6365051 0.15585327 -1.2915955 0.1828003 -1.9543762m5.8830566 -4.8117676c0.012268066 -3.103485 -0.85491943 -5.9450684 -2.229065 -7.304199m5.255127 -7.787079c-0.22253418 1.0567932 -0.56225586 1.9942627 -0.9924927 2.738922m-1.4069824 -12.856384l0 0c0.037963867 0.4267578 0.055480957 0.8599243 0.0524292 1.2935181m-5.869446 -4.4616394l0 0c-0.20785522 0.4972229 -0.37911987 1.0528564 -0.50845337 1.6496277m-4.5489197 -0.67614746l0 0c-0.11077881 0.45159912 -0.19351196 0.9295044 -0.24627686 1.4226685m-5.5474243 0.38912964l0 0c0.3234558 0.3850708 0.62268066 0.84854126 0.8911438 1.380249m-7.8187866 8.0043335l0 0c0.032928467 0.49160767 0.08493042 0.97720337 0.15551758 1.4521484" fill-rule="evenodd"/><path fill="#434343" d="m512.1078 287.09915l0 0c0.4887085 -3.5413208 1.9718018 -6.8403625 3.8198853 -8.497223c1.8481445 -1.6568298 3.7371826 -1.3809204 4.8656006 0.71066284l0 0c0.9503784 -1.9212952 2.2110596 -3.1228027 3.4006348 -3.2411194c1.1895142 -0.11828613 2.168274 0.86050415 2.6401978 2.6403503l0 0c0.8326416 -1.7479858 1.9755859 -2.8017273 3.0231934 -2.787323c1.0476074 0.014404297 1.8516846 1.0949097 2.126831 2.8580933l0 0c1.2199097 -1.783081 2.6884155 -2.3363647 3.7700195 -1.4204407c1.081665 0.9159241 1.5822144 3.1365662 1.2850952 5.7010193l0 0c0.8851929 0.7611084 1.4265747 2.3425598 1.4842529 4.3357544c0.057678223 1.9931641 -0.37402344 4.202545 -1.1835938 6.057312l0 0c0.44580078 2.808197 -0.041748047 6.3263855 -1.2808228 9.241669c-1.2390747 2.9152832 -3.043396 4.7896423 -4.739746 4.9236145c-0.6017456 2.8521423 -1.9137573 5.3120728 -3.430359 6.4316406c-1.5166626 1.1195984 -3.0009766 0.7239685 -3.8809204 -1.0343323l0 0c-1.21521 3.3136597 -3.1654663 5.5334167 -5.0081787 5.7002563c-1.8426514 0.1668396 -3.2474365 -1.749176 -3.6074219 -4.9201965l0 0c-1.4970703 1.2167358 -3.017273 1.3420105 -4.2177734 0.34762573c-1.2005005 -0.9944153 -1.9801025 -3.0247498 -2.1629944 -5.6329956l0 0c-1.280426 0.037872314 -2.194519 -1.4912415 -2.2886353 -3.8284607c-0.09411621 -2.3372192 0.65179443 -4.985016 1.8675232 -6.629303l0 0c-0.81921387 -1.5273743 -0.8401184 -4.2263794 -0.051849365 -6.689575c0.78829956 -2.4631958 2.2071838 -4.132416 3.5167542 -4.137207z" fill-rule="evenodd"/><path fill="#000000" fill-opacity="0.0" d="m508.59094 298.05557l0 0c0.38659668 0.7207947 0.9223938 1.1222839 1.5354614 1.1506042m-1.114685 9.307312c0.26782227 -0.007904053 0.5445862 -0.084747314 0.82321167 -0.22845459m5.5572205 5.513611c-0.066345215 -0.58432007 -0.095703125 -1.2001038 -0.087524414 -1.836853m8.70343 1.0567322l0 0c0.22155762 -0.604126 0.41430664 -1.2332153 0.5749512 -1.8767395m6.736145 -3.5203552c0.640625 -3.03656 0.3670044 -5.9947205 -0.7034302 -7.603943m6.723877 -6.561035c-0.43200684 0.9897766 -0.95458984 1.8389587 -1.5268555 2.4809875m1.2264404 -12.874298l0 0c-0.049316406 0.42559814 -0.11987305 0.853302 -0.21069336 1.2772827m-4.8443604 -5.557678l0 0c-0.30426025 0.4447937 -0.5845337 0.9541931 -0.8320923 1.5123596m-4.317932 -1.583374l0 0c-0.19995117 0.4197998 -0.37780762 0.8710022 -0.5293579 1.3432312m-5.5115967 -0.74243164l0 0c0.23876953 0.44256592 0.43798828 0.95703125 0.59313965 1.5320435m-9.278503 6.2545776l0 0c-0.06732178 0.48809814 -0.11477661 0.9740906 -0.1418457 1.4534912" fill-rule="evenodd"/><path fill="#434343" d="m513.90045 258.44824l0 0c0.4887085 -3.541336 1.9718018 -6.8403625 3.8198853 -8.497223c1.8481445 -1.6568451 3.7371826 -1.3809357 4.8656006 0.71066284l0 0c0.9503784 -1.9212952 2.2110596 -3.1228027 3.4005737 -3.2411194c1.1895752 -0.11830139 2.168335 0.86050415 2.6402588 2.640335l0 0c0.8326416 -1.7479706 1.9755249 -2.8017273 3.0231934 -2.787323c1.0476074 0.014404297 1.8516235 1.0949097 2.126831 2.8581085l0 0c1.2199097 -1.7830963 2.6883545 -2.33638 3.7700195 -1.4204559c1.081665 0.9159241 1.5822144 3.136551 1.2850342 5.7010193l0 0c0.8852539 0.76112366 1.4266357 2.342575 1.484314 4.335739c0.057678223 1.9931946 -0.37408447 4.2025757 -1.1835938 6.0573425l0 0c0.44580078 2.808197 -0.041809082 6.3263855 -1.2808228 9.241669c-1.2390747 2.9152832 -3.043457 4.7896423 -4.739746 4.9236145c-0.6017456 2.8521118 -1.9138184 5.3120728 -3.43042 6.4316406c-1.5166016 1.1195679 -3.0009155 0.7239685 -3.8809204 -1.0343323l0 0c-1.21521 3.3136597 -3.1654053 5.5334167 -5.0081177 5.700226c-1.8426514 0.1668396 -3.2474976 -1.7491455 -3.607483 -4.9201965l0 0c-1.4970093 1.2167358 -3.017212 1.342041 -4.2177124 0.34765625c-1.2005005 -0.9944153 -1.980133 -3.0247498 -2.1629944 -5.6329956l0 0c-1.280426 0.037872314 -2.194519 -1.4912415 -2.2886353 -3.8284912c-0.09411621 -2.3372192 0.65179443 -4.985016 1.8675232 -6.6292725l0 0c-0.81921387 -1.5274048 -0.8401489 -4.22641 -0.051849365 -6.6896057c0.78829956 -2.4631653 2.2071838 -4.1323853 3.5167542 -4.1371765z" fill-rule="evenodd"/><path fill="#000000" fill-opacity="0.0" d="m510.3836 269.40466l0 0c0.38659668 0.7207947 0.9223938 1.1222839 1.5354309 1.1506042m-1.1146545 9.307312c0.26779175 -0.00793457 0.5445862 -0.084747314 0.82318115 -0.2284851m5.557251 5.513611c-0.066345215 -0.58428955 -0.095703125 -1.2000732 -0.08758545 -1.836853m8.703491 1.0567627l0 0c0.22155762 -0.604126 0.4142456 -1.2332153 0.5749512 -1.87677m6.736084 -3.5203552c0.64068604 -3.0365295 0.36706543 -5.9947205 -0.70336914 -7.6039124m6.723877 -6.561035c-0.43200684 0.9897766 -0.9546509 1.8389587 -1.5268555 2.4809875m1.2263794 -12.874298l0 0c-0.04925537 0.42556763 -0.11987305 0.853302 -0.21069336 1.2772522m-4.8442993 -5.557663l0 0c-0.30426025 0.4447937 -0.5845947 0.9542084 -0.8320923 1.5123749m-4.317932 -1.5833893l0 0c-0.19995117 0.4197998 -0.37780762 0.87101746 -0.5293579 1.3432465m-5.5115967 -0.7424469l0 0c0.23876953 0.44258118 0.43792725 0.95703125 0.59313965 1.5320587m-9.278503 6.2545776l0 0c-0.06738281 0.48806763 -0.11480713 0.9740906 -0.1418457 1.4534912" fill-rule="evenodd"/><path fill="#434343" d="m560.322 286.0559l0 0c-0.23883057 -3.567047 0.545166 -7.0982056 2.019287 -9.095093c1.4741211 -1.9968567 3.3797607 -2.1092224 4.908386 -0.2894287l0 0c0.5415039 -2.0740356 1.5325928 -3.506012 2.673462 -3.8627625c1.1408691 -0.356781 2.2975464 0.40353394 3.1201782 2.0509949l0 0c0.46124268 -1.8804626 1.3670044 -3.1438599 2.395752 -3.3419495c1.0287476 -0.19805908 2.0349731 0.6972656 2.661621 2.3682556l0 0c0.833313 -1.9932556 2.1592407 -2.8325195 3.4039307 -2.154602c1.24469 0.6779175 2.1846924 2.7512512 2.413147 5.3228455l0 0c1.0209961 0.5661011 1.871521 2.005188 2.331726 3.945465c0.46020508 1.9402771 0.48498535 4.1914062 0.067993164 6.171753l0 0c1.0053711 2.6598206 1.2405396 6.2039795 0.61779785 9.309906c-0.62280273 3.105896 -2.0100098 5.3069153 -3.643921 5.7816772c-0.0115356445 2.9150085 -0.79803467 5.5897827 -2.0563354 6.993347c-1.2583008 1.4035645 -2.7919312 1.3167725 -4.0097656 -0.22695923l0 0c-0.5187378 3.491211 -1.9788208 6.060028 -3.7493896 6.5966187c-1.7706299 0.53656006 -3.5343628 -1.0552979 -4.529175 -4.0878296l0 0c-1.2194824 1.494751 -2.6827393 1.9253235 -4.0596924 1.1946411c-1.3769531 -0.7307129 -2.5516357 -2.5611572 -3.2590942 -5.07843l0 0c-1.2460938 0.29641724 -2.4509888 -1.0159607 -3.0165405 -3.2857666c-0.5656128 -2.2698364 -0.371521 -5.013916 0.48590088 -6.870392l0 0c-1.1116333 -1.329895 -1.678833 -3.968811 -1.4058838 -6.5407104c0.27301025 -2.5718994 1.3242798 -4.493927 2.6056519 -4.763855z" fill-rule="evenodd"/><path fill="#000000" fill-opacity="0.0" d="m559.0976 297.49796l0 0c0.52453613 0.6275635 1.1305542 0.91226196 1.7365723 0.8158264m0.79382324 9.340546c0.26062012 -0.0619812 0.5161133 -0.19326782 0.75982666 -0.3904419m6.5585938 4.2740784c-0.18334961 -0.55877686 -0.336792 -1.1558838 -0.4578247 -1.7811279m8.736694 -0.7277832l0 0c0.09454346 -0.6365051 0.15582275 -1.2915955 0.1828003 -1.9543762m5.8830566 -4.8117676c0.012268066 -3.103485 -0.85491943 -5.945038 -2.229065 -7.304199m5.255127 -7.7870483c-0.22253418 1.0567932 -0.56225586 1.9942627 -0.9925537 2.7388916m-1.4069214 -12.856384l0 0c0.037963867 0.4267578 0.055480957 0.8599243 0.0524292 1.2935181m-5.869446 -4.461609l0 0c-0.20788574 0.49719238 -0.3791504 1.0528564 -0.50842285 1.6495972m-4.54895 -0.67614746l0 0c-0.11077881 0.45162964 -0.19354248 0.9295044 -0.24627686 1.4226685m-5.5474243 0.38912964l0 0c0.3234253 0.3850708 0.62268066 0.84854126 0.8911133 1.380249m-7.8187256 8.0043335l0 0c0.03289795 0.49163818 0.0848999 0.97720337 0.15551758 1.4521484" fill-rule="evenodd"/><path fill="#434343" d="m578.07104 299.75137l0 0c0.4887085 -3.5413208 1.9718018 -6.8403625 3.8198853 -8.497192c1.8481445 -1.6568604 3.7371826 -1.3809509 4.8656006 0.7106323l0 0c0.9503784 -1.9212646 2.2110596 -3.1228027 3.4006348 -3.2410889c1.1895142 -0.11831665 2.168274 0.86047363 2.6401978 2.6403198l0 0c0.8326416 -1.7479858 1.9755859 -2.8017273 3.0231934 -2.787323c1.0476074 0.014404297 1.8516846 1.0949097 2.126831 2.8581238l0 0c1.2199097 -1.7831116 2.6883545 -2.3363953 3.7700195 -1.4204712c1.081665 0.9159241 1.5822144 3.1365662 1.2850952 5.7010193l0 0c0.8851929 0.7611084 1.4265747 2.3425598 1.4842529 4.3357544c0.057678223 1.9931641 -0.37402344 4.2025757 -1.1835938 6.057312l0 0c0.44580078 2.808197 -0.041748047 6.326416 -1.2808228 9.241699c-1.2390747 2.9152527 -3.043457 4.789612 -4.739746 4.923584c-0.6017456 2.8521423 -1.9137573 5.3120728 -3.43042 6.431671c-1.5166016 1.1195679 -3.0009155 0.7239685 -3.8809204 -1.0343628l0 0c-1.21521 3.3136597 -3.1654053 5.5334167 -5.0081177 5.7002563c-1.8426514 0.1668396 -3.2474365 -1.7491455 -3.6074219 -4.9201965l0 0c-1.4970703 1.2167358 -3.017273 1.342041 -4.2177734 0.34762573c-1.2005005 -0.99438477 -1.9801025 -3.0247192 -2.163025 -5.6329956l0 0c-1.2803955 0.037872314 -2.194519 -1.4912415 -2.2885742 -3.8284607c-0.09411621 -2.3372192 0.65179443 -4.985016 1.8674927 -6.6292725l0 0c-0.81921387 -1.5274048 -0.8401489 -4.22641 -0.051818848 -6.6896057c0.78826904 -2.4631958 2.2071533 -4.1323853 3.5167236 -4.137207z" fill-rule="evenodd"/><path fill="#000000" fill-opacity="0.0" d="m574.5542 310.70782l0 0c0.38659668 0.72076416 0.9223633 1.1222839 1.5354614 1.1505737m-1.114685 9.307343c0.26782227 -0.00793457 0.54455566 -0.084747314 0.82318115 -0.2284851m5.557251 5.513611c-0.066345215 -0.58428955 -0.095703125 -1.2000732 -0.08758545 -1.836853m8.703491 1.0567627l0 0c0.22155762 -0.604126 0.41430664 -1.2332153 0.5749512 -1.87677m6.736145 -3.5203552c0.640625 -3.0365295 0.3670044 -5.9947205 -0.7034302 -7.603943m6.723877 -6.5610046c-0.43200684 0.9897461 -0.95458984 1.8389587 -1.5268555 2.4809875m1.2264404 -12.874298l0 0c-0.049316406 0.42556763 -0.11987305 0.853302 -0.21069336 1.2772522m-4.8443604 -5.557678l0 0c-0.30426025 0.4447937 -0.5845337 0.95422363 -0.8320923 1.5123901m-4.317932 -1.5834045l0 0c-0.19995117 0.4197998 -0.37780762 0.8710327 -0.5293579 1.3432617m-5.5115967 -0.74246216l0 0c0.23876953 0.44259644 0.43798828 0.95703125 0.59313965 1.5320435m-9.278503 6.2545776l0 0c-0.06732178 0.48809814 -0.11480713 0.9741211 -0.1418457 1.4535217" fill-rule="evenodd"/><path fill="#434343" d="m579.8637 271.10046l0 0c0.4887085 -3.5413208 1.9718018 -6.8403625 3.8198853 -8.497223c1.8481445 -1.6568298 3.7371826 -1.3809204 4.8656006 0.71066284l0 0c0.9503784 -1.9212952 2.2110596 -3.1228027 3.4005737 -3.2411194c1.1895752 -0.11828613 2.168335 0.86050415 2.6402588 2.6403503l0 0c0.8326416 -1.7479858 1.9755249 -2.8017273 3.0231934 -2.787323c1.0476074 0.014404297 1.8516235 1.0949097 2.126831 2.8580933l0 0c1.2199097 -1.783081 2.6883545 -2.3363647 3.7700195 -1.4204407c1.081665 0.9159241 1.5822144 3.1365662 1.2850342 5.7010193l0 0c0.8852539 0.7611084 1.4266357 2.3425598 1.484314 4.3357544c0.057678223 1.9931641 -0.37408447 4.202545 -1.1835938 6.057312l0 0c0.44580078 2.808197 -0.041809082 6.3263855 -1.2808228 9.241669c-1.2390747 2.9152832 -3.043457 4.7896423 -4.739746 4.9236145c-0.6017456 2.8521423 -1.9138184 5.3120728 -3.43042 6.4316406c-1.5166016 1.1195984 -3.0009155 0.7239685 -3.8809204 -1.0343323l0 0c-1.21521 3.3136597 -3.1654053 5.5334167 -5.0081177 5.7002563c-1.8426514 0.1668396 -3.2474976 -1.749176 -3.607483 -4.9201965l0 0c-1.4970093 1.2167358 -3.017273 1.3420105 -4.2177124 0.34762573c-1.2005005 -0.9944153 -1.9801025 -3.0247498 -2.163025 -5.6329956l0 0c-1.2803955 0.037872314 -2.194519 -1.4912415 -2.2886353 -3.8284607c-0.09411621 -2.3372192 0.65179443 -4.985016 1.8675537 -6.629303l0 0c-0.81921387 -1.5273743 -0.8401489 -4.2263794 -0.051879883 -6.689575c0.7883301 -2.4631958 2.2072144 -4.132416 3.5167847 -4.137207z" fill-rule="evenodd"/><path fill="#000000" fill-opacity="0.0" d="m576.34686 282.0569l0 0c0.38659668 0.7207947 0.9223633 1.1222839 1.5354614 1.1506042m-1.114685 9.307312c0.26782227 -0.007904053 0.54455566 -0.084747314 0.82318115 -0.22845459m5.557251 5.513611c-0.066345215 -0.58432007 -0.095703125 -1.2001038 -0.08758545 -1.836853m8.703491 1.0567322l0 0c0.22155762 -0.604126 0.4142456 -1.2332153 0.57489014 -1.8767395m6.736145 -3.5203552c0.64068604 -3.03656 0.3670044 -5.9947205 -0.70336914 -7.603943m6.723877 -6.561035c-0.43200684 0.9897766 -0.9546509 1.8389587 -1.5268555 2.4809875m1.2263794 -12.874298l0 0c-0.04925537 0.42559814 -0.11987305 0.853302 -0.21069336 1.2772827m-4.8442993 -5.557678l0 0c-0.3043213 0.4447937 -0.5845947 0.9541931 -0.8320923 1.5123596m-4.317932 -1.583374l0 0c-0.19995117 0.4197998 -0.37780762 0.8710022 -0.5293579 1.3432312m-5.5115967 -0.74243164l0 0c0.23876953 0.44256592 0.43792725 0.95703125 0.59313965 1.5320435m-9.278503 6.2545776l0 0c-0.06738281 0.48809814 -0.11480713 0.9740906 -0.1418457 1.4534912" fill-rule="evenodd"/></g></svg>