<svg version="1.1" viewBox="0.0 0.0 960.0 720.0" fill="none" stroke="none" stroke-linecap="square" stroke-miterlimit="10" xmlns:xlink="http://www.w3.org/1999/xlink" xmlns="http://www.w3.org/2000/svg"><clipPath id="p.0"><path d="m0 0l960.0 0l0 720.0l-960.0 0l0 -720.0z" clip-rule="nonzero"/></clipPath><g clip-path="url(#p.0)"><path fill="#000000" fill-opacity="0.0" d="m0 0l960.0 0l0 720.0l-960.0 0z" fill-rule="evenodd"/><path fill="#999999" d="m337.5433 115.08662l284.91336 0l0 489.82678l-284.91336 0z" fill-rule="evenodd"/><path stroke="#000000" stroke-width="1.0" stroke-linejoin="round" stroke-linecap="butt" d="m337.5433 115.08662l284.91336 0l0 489.82678l-284.91336 0z" fill-rule="evenodd"/><path fill="#b7b7b7" d="m416.77167 251.29134l126.456665 0l0 217.41731l-126.456665 0z" fill-rule="evenodd"/><path stroke="#000000" stroke-width="1.0" stroke-linejoin="round" stroke-linecap="butt" d="m416.77167 251.29134l126.456665 0l0 217.41731l-126.456665 0z" fill-rule="evenodd"/><path fill="#434343" d="m450.44095 251.29134l0 44.929123l-16.834656 16.834656l-16.834625 -16.834656l0 -44.929123z" fill-rule="evenodd"/><path stroke="#000000" stroke-width="1.0" stroke-linejoin="round" stroke-linecap="butt" d="m450.44095 251.29134l0 44.929123l-16.834656 16.834656l-16.834625 -16.834656l0 -44.929123z" fill-rule="evenodd"/><path fill="#434343" d="m543.22833 251.29134l0 44.929123l-16.834656 16.834656l-16.834625 -16.834656l0 -44.929123z" fill-rule="evenodd"/><path stroke="#000000" stroke-width="1.0" stroke-linejoin="round" stroke-linecap="butt" d="m543.22833 251.29134l0 44.929123l-16.834656 16.834656l-16.834625 -16.834656l0 -44.929123z" fill-rule="evenodd"/><path fill="#434343" d="m496.83466 251.29134l0 44.929123l-16.834656 16.834656l-16.834656 -16.834656l0 -44.929123z" fill-rule="evenodd"/><path stroke="#000000" stroke-width="1.0" stroke-linejoin="round" stroke-linecap="butt" d="m496.83466 251.29134l0 44.929123l-16.834656 16.834656l-16.834656 -16.834656l0 -44.929123z" fill-rule="evenodd"/><path fill="#000000" fill-opacity="0.0" d="m384.56693 141.40158l190.86612 0l0 109.889755l-190.86612 0z" fill-rule="evenodd"/><path fill="#000000" d="m395.95755 186.24158l0 -0.59375l3.0625 -1.5l0 -20.453125l-3.0625 -1.5l0 -0.59375l9.96875 0l0 0.59375l-3.03125 1.5l0 20.453125l3.03125 1.5l0 0.59375l-9.96875 0zm21.979034 0.375q-3.609375 0 -5.75 -2.203125q-2.125 -2.203125 -2.125 -5.859375q0 -2.765625 1.140625 -4.921875q1.140625 -2.171875 3.109375 -3.375q1.984375 -1.21875 4.53125 -1.21875q1.5625 0 2.984375 0.5q1.421875 0.5 2.15625 1.328125q0.5625 0.671875 0.5625 1.109375q0 0.3125 -0.09375 0.484375q-0.09375 0.15625 -0.34375 0.421875l-1.53125 1.234375l-0.265625 0l-1.265625 -1.71875q-0.5625 -0.78125 -1.359375 -1.25q-0.78125 -0.46875 -1.96875 -0.46875q-1.984375 0 -3.109375 1.640625q-1.109375 1.640625 -1.109375 4.515625q0 1.75 0.578125 3.28125q0.578125 1.53125 1.9375 2.46875q1.375 0.9375 3.71875 0.9375q1.046875 0 2.234375 -0.359375q1.203125 -0.359375 2.546875 -1.0625l0.109375 0l0 0.4375q-0.859375 1.71875 -2.625 2.90625q-1.75 1.171875 -4.0625 1.171875zm17.927094 0q-3.65625 0 -5.796875 -2.203125q-2.125 -2.203125 -2.125 -5.859375q0 -2.765625 1.140625 -4.921875q1.140625 -2.171875 3.015625 -3.375q1.890625 -1.21875 4.09375 -1.21875q2.984375 0 4.65625 2.03125q1.6875 2.03125 1.734375 5.84375l-0.1875 0.1875l-11.015625 0q0.03125 1.71875 0.640625 3.171875q0.625 1.453125 1.984375 2.359375q1.375 0.890625 3.6875 0.890625q2.125 0 4.8125 -1.421875l0.109375 0l0 0.4375q-0.890625 1.71875 -2.65625 2.90625q-1.75 1.171875 -4.09375 1.171875zm-0.34375 -15.9375q-1.640625 0 -2.703125 1.234375q-1.0625 1.21875 -1.359375 3.46875l7.953125 0q-0.375 -2.546875 -1.34375 -3.625q-0.96875 -1.078125 -2.546875 -1.078125zm18.587738 15.9375q-3.609375 0 -5.75 -2.203125q-2.125 -2.203125 -2.125 -5.859375q0 -2.765625 1.140625 -4.921875q1.140625 -2.171875 3.109375 -3.375q1.984375 -1.21875 4.53125 -1.21875q1.5625 0 2.984375 0.5q1.421875 0.5 2.15625 1.328125q0.5625 0.671875 0.5625 1.109375q0 0.3125 -0.09375 0.484375q-0.09375 0.15625 -0.34375 0.421875l-1.53125 1.234375l-0.265625 0l-1.265625 -1.71875q-0.5625 -0.78125 -1.359375 -1.25q-0.78125 -0.46875 -1.96875 -0.46875q-1.984375 0 -3.109375 1.640625q-1.109375 1.640625 -1.109375 4.515625q0 1.75 0.578125 3.28125q0.578125 1.53125 1.9375 2.46875q1.375 0.9375 3.71875 0.9375q1.046875 0 2.234375 -0.359375q1.203125 -0.359375 2.546875 -1.0625l0.109375 0l0 0.4375q-0.859375 1.71875 -2.625 2.90625q-1.75 1.171875 -4.0625 1.171875zm10.0425415 -0.375l0 -0.59375l2.390625 -1.203125l0 -11.125l-2.28125 -1.890625l0 -0.3125l5.15625 -2.078125l0.296875 0l0.34375 3.203125l0.140625 0q0.859375 -1.421875 1.5625 -2.109375q0.71875 -0.6875 1.34375 -0.890625q0.640625 -0.203125 1.3125 -0.203125q0.34375 0 0.734375 0.09375q0.390625 0.09375 0.65625 0.203125q0.4375 0.1875 0.765625 0.453125q0.34375 0.25 0.34375 0.59375q0 0.328125 -0.140625 0.671875l-0.78125 1.96875l-0.265625 0l-1.3125 -0.515625q-0.4375 -0.15625 -0.859375 -0.203125q-0.40625 -0.0625 -0.8125 -0.0625q-1.609375 0 -2.65625 1.53125l0 10.671875l2.734375 1.203125l0 0.59375l-8.671875 0zm23.002502 0.375q-3.65625 0 -5.796875 -2.203125q-2.125 -2.203125 -2.125 -5.859375q0 -2.765625 1.140625 -4.921875q1.140625 -2.171875 3.015625 -3.375q1.890625 -1.21875 4.09375 -1.21875q2.984375 0 4.65625 2.03125q1.6875 2.03125 1.734375 5.84375l-0.1875 0.1875l-11.015625 0q0.03125 1.71875 0.640625 3.171875q0.625 1.453125 1.984375 2.359375q1.375 0.890625 3.6875 0.890625q2.125 0 4.8125 -1.421875l0.109375 0l0 0.4375q-0.890625 1.71875 -2.65625 2.90625q-1.75 1.171875 -4.09375 1.171875zm-0.34375 -15.9375q-1.640625 0 -2.703125 1.234375q-1.0625 1.21875 -1.359375 3.46875l7.953125 0q-0.375 -2.546875 -1.34375 -3.625q-0.96875 -1.078125 -2.546875 -1.078125zm14.781311 15.9375q-1.78125 0 -2.96875 -1.0625q-1.171875 -1.0625 -1.171875 -2.9375q0 -1.828125 1.328125 -3.140625q1.328125 -1.328125 4.609375 -2.125l3.546875 -0.8125l0 -2.609375q0 -1.34375 -1.0 -2.234375q-0.984375 -0.90625 -2.28125 -0.90625q-1.390625 0 -1.9375 0.71875q-0.53125 0.703125 -0.53125 1.9375l0 1.1875l-0.1875 0.1875l-2.046875 0q-0.5625 0 -0.765625 -0.203125q-0.203125 -0.203125 -0.203125 -0.875q0 -0.828125 0.5 -1.65625q0.5 -0.84375 1.546875 -1.484375q1.125 -0.703125 2.28125 -1.125q1.15625 -0.4375 2.453125 -0.4375q1.421875 0 2.75 0.390625q1.328125 0.390625 2.140625 1.328125q0.828125 0.921875 0.828125 2.5l0 10.40625q0.265625 0.265625 0.71875 0.453125q0.46875 0.1875 1.296875 0.1875l1.3125 0l0.140625 0.078125l0 0.21875q-0.453125 0.78125 -1.375 1.40625q-0.90625 0.609375 -2.203125 0.609375q-1.28125 0 -2.0625 -0.609375q-0.78125 -0.625 -1.109375 -1.703125l-0.265625 0q-0.96875 0.96875 -2.375 1.640625q-1.390625 0.671875 -2.96875 0.671875zm-0.734375 -4.8125q0 2.3125 2.71875 2.3125q0.8125 0 1.578125 -0.171875q0.765625 -0.171875 1.78125 -0.578125l0 -5.53125q-2.6875 0.53125 -4.0 1.125q-1.296875 0.59375 -1.6875 1.296875q-0.390625 0.6875 -0.390625 1.546875zm15.071228 4.4375l0 -0.59375l2.390625 -1.203125l0 -11.15625l-2.28125 -1.859375l0 -0.3125l5.15625 -2.078125l0.265625 0l0.328125 2.75l0.1875 0q1.390625 -1.375 2.65625 -2.0625q1.265625 -0.6875 2.828125 -0.6875q1.796875 0 3.0625 0.796875q1.265625 0.796875 1.640625 2.375l0.15625 0q1.53125 -1.609375 2.875 -2.390625q1.34375 -0.78125 3.015625 -0.78125q2.171875 0 3.53125 1.109375q1.359375 1.09375 1.359375 3.296875l0 11.0l2.390625 1.203125l0 0.59375l-8.390625 0l0 -0.59375l2.5 -1.203125l0 -9.296875q0 -1.59375 -0.9375 -2.390625q-0.9375 -0.8125 -2.390625 -0.8125q-1.15625 0 -2.203125 0.390625q-1.046875 0.390625 -1.75 1.140625l0 10.96875l2.421875 1.203125l0 0.59375l-8.28125 0l0 -0.59375l2.34375 -1.203125l0 -9.296875q0 -1.59375 -0.921875 -2.390625q-0.90625 -0.8125 -2.359375 -0.8125q-0.890625 0 -1.953125 0.296875q-1.0625 0.296875 -1.734375 0.9375l0 11.265625l2.265625 1.203125l0 0.59375l-8.171875 0z" fill-rule="nonzero"/><path fill="#000000" d="m395.66068 231.04156l0 -0.59375l2.984375 -1.5l0.78125 -20.453125l-3.203125 -1.5l0 -0.59375l7.421875 0l8.359375 19.296875l8.328125 -19.296875l7.125 0l0 0.59375l-3.171875 1.390625l0.640625 20.5625l2.6875 1.5l0 0.59375l-9.21875 0l0 -0.59375l2.796875 -1.453125l-0.375 -18.265625l-8.8125 20.5l-1.796875 0l-8.734375 -20.265625l-0.484375 18.03125l3.109375 1.453125l0 0.59375l-8.4375 0zm39.82126 0.375q-1.78125 0 -2.96875 -1.0625q-1.171875 -1.0625 -1.171875 -2.9375q0 -1.828125 1.328125 -3.140625q1.328125 -1.328125 4.609375 -2.125l3.546875 -0.8125l0 -2.609375q0 -1.34375 -1.0 -2.234375q-0.984375 -0.90625 -2.28125 -0.90625q-1.390625 0 -1.9375 0.71875q-0.53125 0.703125 -0.53125 1.9375l0 1.1875l-0.1875 0.1875l-2.046875 0q-0.5625 0 -0.765625 -0.203125q-0.203125 -0.203125 -0.203125 -0.875q0 -0.828125 0.5 -1.65625q0.5 -0.84375 1.546875 -1.484375q1.125 -0.703125 2.28125 -1.125q1.15625 -0.4375 2.453125 -0.4375q1.421875 0 2.75 0.390625q1.328125 0.390625 2.140625 1.328125q0.828125 0.921875 0.828125 2.5l0 10.40625q0.265625 0.265625 0.71875 0.453125q0.46875 0.1875 1.296875 0.1875l1.3125 0l0.140625 0.078125l0 0.21875q-0.453125 0.78125 -1.375 1.40625q-0.90625 0.609375 -2.203125 0.609375q-1.28125 0 -2.0625 -0.609375q-0.78125 -0.625 -1.109375 -1.703125l-0.265625 0q-0.96875 0.96875 -2.375 1.640625q-1.390625 0.671875 -2.96875 0.671875zm-0.734375 -4.8125q0 2.3125 2.71875 2.3125q0.8125 0 1.578125 -0.171875q0.765625 -0.171875 1.78125 -0.578125l0 -5.53125q-2.6875 0.53125 -4.0 1.125q-1.296875 0.59375 -1.6875 1.296875q-0.390625 0.6875 -0.390625 1.546875zm23.055603 4.8125q-3.609375 0 -5.75 -2.203125q-2.125 -2.203125 -2.125 -5.859375q0 -2.765625 1.140625 -4.921875q1.140625 -2.171875 3.109375 -3.375q1.984375 -1.21875 4.53125 -1.21875q1.5625 0 2.984375 0.5q1.421875 0.5 2.15625 1.328125q0.5625 0.671875 0.5625 1.109375q0 0.3125 -0.09375 0.484375q-0.09375 0.15625 -0.34375 0.421875l-1.53125 1.234375l-0.265625 0l-1.265625 -1.71875q-0.5625 -0.78125 -1.359375 -1.25q-0.78125 -0.46875 -1.96875 -0.46875q-1.984375 0 -3.109375 1.640625q-1.109375 1.640625 -1.109375 4.515625q0 1.75 0.578125 3.28125q0.578125 1.53125 1.9375 2.46875q1.375 0.9375 3.71875 0.9375q1.046875 0 2.234375 -0.359375q1.203125 -0.359375 2.546875 -1.0625l0.109375 0l0 0.4375q-0.859375 1.71875 -2.625 2.90625q-1.75 1.171875 -4.0625 1.171875zm9.8958435 -0.375l0 -0.59375l2.390625 -1.203125l0 -21.9375l-2.28125 -1.90625l0 -0.296875l5.53125 -2.0625l0.265625 0l0 13.546875l0.140625 0q1.421875 -1.375 2.71875 -2.0625q1.3125 -0.6875 2.953125 -0.6875q2.171875 0 3.609375 1.109375q1.4375 1.09375 1.4375 3.296875l0 11.0l2.34375 1.203125l0 0.59375l-8.359375 0l0 -0.59375l2.46875 -1.09375l0 -9.40625q0 -1.59375 -0.96875 -2.390625q-0.96875 -0.8125 -2.5 -0.8125q-0.9375 0 -2.0625 0.296875q-1.109375 0.296875 -1.78125 0.9375l0 11.375l2.453125 1.09375l0 0.59375l-8.359375 0zm26.093079 -21.53125q-1.0 0 -1.671875 -0.671875q-0.671875 -0.671875 -0.671875 -1.6875q0 -1.046875 0.671875 -1.6875q0.671875 -0.65625 1.671875 -0.65625q1.015625 0 1.6875 0.65625q0.671875 0.640625 0.671875 1.6875q0 1.015625 -0.671875 1.6875q-0.671875 0.671875 -1.6875 0.671875zm-4.03125 21.53125l0 -0.59375l2.390625 -1.203125l0 -11.15625l-2.28125 -1.90625l0 -0.296875l5.53125 -2.046875l0.265625 0l0 15.40625l2.3125 1.203125l0 0.59375l-8.21875 0zm11.682861 0l0 -0.59375l2.390625 -1.203125l0 -11.15625l-2.28125 -1.859375l0 -0.3125l5.15625 -2.078125l0.265625 0l0.328125 2.75l0.1875 0q1.421875 -1.375 2.71875 -2.0625q1.3125 -0.6875 2.9531555 -0.6875q2.171875 0 3.609375 1.109375q1.4375 1.09375 1.4375 3.296875l0 11.0l2.34375 1.203125l0 0.59375l-8.359375 0l0 -0.59375l2.46875 -1.203125l0 -9.296875q0 -1.59375 -0.96875 -2.390625q-0.96875 -0.8125 -2.5000305 -0.8125q-0.9375 0 -2.0625 0.296875q-1.109375 0.296875 -1.78125 0.9375l0 11.265625l2.453125 1.203125l0 0.59375l-8.359375 0zm30.054901 0.375q-3.65625 0 -5.796875 -2.203125q-2.125 -2.203125 -2.125 -5.859375q0 -2.765625 1.140625 -4.921875q1.140625 -2.171875 3.015625 -3.375q1.890625 -1.21875 4.09375 -1.21875q2.984375 0 4.65625 2.03125q1.6875 2.03125 1.734375 5.84375l-0.1875 0.1875l-11.015625 0q0.03125 1.71875 0.640625 3.171875q0.625 1.453125 1.984375 2.359375q1.375 0.890625 3.6875 0.890625q2.125 0 4.8125 -1.421875l0.109375 0l0 0.4375q-0.890625 1.71875 -2.65625 2.90625q-1.75 1.171875 -4.09375 1.171875zm-0.34375 -15.9375q-1.640625 0 -2.703125 1.234375q-1.0625 1.21875 -1.359375 3.46875l7.953125 0q-0.375 -2.546875 -1.34375 -3.625q-0.96875 -1.078125 -2.546875 -1.078125z" fill-rule="nonzero"/></g></svg>