<svg version="1.1" viewBox="0.0 0.0 960.0 720.0" fill="none" stroke="none" stroke-linecap="square" stroke-miterlimit="10" xmlns:xlink="http://www.w3.org/1999/xlink" xmlns="http://www.w3.org/2000/svg"><clipPath id="p.0"><path d="m0 0l960.0 0l0 720.0l-960.0 0l0 -720.0z" clip-rule="nonzero"/></clipPath><g clip-path="url(#p.0)"><path fill="#000000" fill-opacity="0.0" d="m0 0l960.0 0l0 720.0l-960.0 0z" fill-rule="evenodd"/><path fill="#cccccc" d="m581.67505 157.7541c8.888916 -8.421265 13.565186 -64.562996 5.6115723 -67.37008c-7.9536133 -2.8070908 -52.39807 39.299202 -53.333374 50.52755c-0.9352417 11.228348 38.832947 25.263779 47.7218 16.84253z" fill-rule="evenodd"/><path stroke="#666666" stroke-width="12.0" stroke-linejoin="round" stroke-linecap="butt" d="m581.67505 157.7541c8.888916 -8.421265 13.565186 -64.562996 5.6115723 -67.37008c-7.9536133 -2.8070908 -52.39807 39.299202 -53.333374 50.52755c-0.9352417 11.228348 38.832947 25.263779 47.7218 16.84253z" fill-rule="evenodd"/><path fill="#cccccc" d="m375.71967 148.3499c-8.8888855 -8.421265 -13.565155 -64.56299 -5.6115417 -67.37008c7.953644 -2.8070831 52.39807 39.299217 53.333344 50.527565c0.9352417 11.228348 -38.832886 25.263779 -47.7218 16.842514z" fill-rule="evenodd"/><path stroke="#666666" stroke-width="12.0" stroke-linejoin="round" stroke-linecap="butt" d="m375.71967 148.3499c-8.8888855 -8.421265 -13.565155 -64.56299 -5.6115417 -67.37008c7.953644 -2.8070831 52.39807 39.299217 53.333344 50.527565c0.9352417 11.228348 -38.832886 25.263779 -47.7218 16.842514z" fill-rule="evenodd"/><path fill="#f3f3f3" d="m335.43936 228.77165c-7.251526 -1.4037628 -20.81845 35.321518 -36.490814 42.104996c-15.672363 6.7834473 -64.56081 13.566498 -57.543304 -1.4042053c7.017502 -14.970688 79.76553 -76.02231 99.648285 -88.41995c19.882782 -12.397629 11.929138 14.034119 19.648315 14.034119c7.7191467 0 24.795258 -6.3149567 26.666656 -14.034119c1.8713989 -7.719162 -22.68985 -23.625977 -15.438324 -32.280838c7.251526 -8.654861 47.017487 -19.6483 58.94751 -19.6483c11.930023 0 -2.3381348 16.37358 12.632538 19.6483c14.970703 3.2747192 61.753296 2.573059 77.19162 0c15.438293 -2.573059 3.7423096 -16.374008 15.438293 -15.438324c11.695984 0.93569946 47.953674 14.035004 54.73755 21.052505c6.7838745 7.0174866 -16.373596 13.566925 -14.034119 21.05249c2.3394775 7.485565 18.012268 19.182404 28.070862 23.860886c10.058594 4.678482 19.181519 -7.719589 32.280823 4.209976c13.099304 11.929565 44.911682 54.73578 46.315002 67.36746c1.4033203 12.631653 -27.836426 14.738403 -37.89502 8.422577c-10.058655 -6.315857 -18.47992 -47.486893 -22.456726 -46.317596c-3.9768066 1.1692963 -6.7843018 32.514435 -1.4041748 53.333344c5.380127 20.818878 28.538513 49.12378 33.68506 71.58005c5.1465454 22.456238 2.5743408 55.905945 -2.8057861 63.15747c-5.380127 7.251526 -16.609375 -13.800507 -29.475098 -19.648285c-12.865662 -5.8477783 -30.175415 -13.098877 -47.719116 -15.438324c-17.543762 -2.339447 -40.701233 -1.4050903 -57.543335 1.4015808c-16.842072 2.8066406 -29.006134 16.373993 -43.509186 15.438324c-14.503052 -0.93569946 -21.286957 -21.754608 -43.509186 -21.05249c-22.222229 0.7020874 -71.578735 18.48117 -89.82416 25.265076c-18.245392 6.783905 -14.502167 17.075684 -19.648285 15.438324c-5.146118 -1.6373596 -12.164032 -6.0809326 -11.2283325 -25.262482c0.93566895 -19.181519 11.462372 -70.17758 16.842499 -89.82675c5.3801575 -19.64917 14.035004 -14.968964 15.438324 -28.068237c1.4033203 -13.099304 0.2331543 -49.12381 -7.0183716 -50.527573z" fill-rule="evenodd"/><path stroke="#666666" stroke-width="12.0" stroke-linejoin="round" stroke-linecap="butt" d="m335.43936 228.77165c-7.251526 -1.4037628 -20.81845 35.321518 -36.490814 42.104996c-15.672363 6.7834473 -64.56081 13.566498 -57.543304 -1.4042053c7.017502 -14.970688 79.76553 -76.02231 99.648285 -88.41995c19.882782 -12.397629 11.929138 14.034119 19.648315 14.034119c7.7191467 0 24.795258 -6.3149567 26.666656 -14.034119c1.8713989 -7.719162 -22.68985 -23.625977 -15.438324 -32.280838c7.251526 -8.654861 47.017487 -19.6483 58.94751 -19.6483c11.930023 0 -2.3381348 16.37358 12.632538 19.6483c14.970703 3.2747192 61.753296 2.573059 77.19162 0c15.438293 -2.573059 3.7423096 -16.374008 15.438293 -15.438324c11.695984 0.93569946 47.953674 14.035004 54.73755 21.052505c6.7838745 7.0174866 -16.373596 13.566925 -14.034119 21.05249c2.3394775 7.485565 18.012268 19.182404 28.070862 23.860886c10.058594 4.678482 19.181519 -7.719589 32.280823 4.209976c13.099304 11.929565 44.911682 54.73578 46.315002 67.36746c1.4033203 12.631653 -27.836426 14.738403 -37.89502 8.422577c-10.058655 -6.315857 -18.47992 -47.486893 -22.456726 -46.317596c-3.9768066 1.1692963 -6.7843018 32.514435 -1.4041748 53.333344c5.380127 20.818878 28.538513 49.12378 33.68506 71.58005c5.1465454 22.456238 2.5743408 55.905945 -2.8057861 63.15747c-5.380127 7.251526 -16.609375 -13.800507 -29.475098 -19.648285c-12.865662 -5.8477783 -30.175415 -13.098877 -47.719116 -15.438324c-17.543762 -2.339447 -40.701233 -1.4050903 -57.543335 1.4015808c-16.842072 2.8066406 -29.006134 16.373993 -43.509186 15.438324c-14.503052 -0.93569946 -21.286957 -21.754608 -43.509186 -21.05249c-22.222229 0.7020874 -71.578735 18.48117 -89.82416 25.265076c-18.245392 6.783905 -14.502167 17.075684 -19.648285 15.438324c-5.146118 -1.6373596 -12.164032 -6.0809326 -11.2283325 -25.262482c0.93566895 -19.181519 11.462372 -70.17758 16.842499 -89.82675c5.3801575 -19.64917 14.035004 -14.968964 15.438324 -28.068237c1.4033203 -13.099304 0.2331543 -49.12381 -7.0183716 -50.527573z" fill-rule="evenodd"/><path fill="#e6b8af" d="m490.80505 385.96606c-24.561249 0.70166016 -37.660126 -19.416016 -67.36746 -12.632568c-29.707367 6.783478 -91.46152 30.643494 -110.87665 53.333344c-19.41513 22.68985 -14.269012 61.519257 -5.6141663 82.805786c8.654846 21.28653 33.215668 35.556427 57.543304 44.91336c24.327637 9.356995 66.90201 11.929993 88.42258 11.2283325c21.520569 -0.70166016 23.391083 -15.672302 40.700775 -15.438293c17.309723 0.23400879 42.5726 16.374878 63.1575 16.84253c20.584839 0.46759033 44.67932 -3.7440796 60.351685 -14.036743c15.672363 -10.292664 28.770325 -26.900696 33.682434 -47.719177c4.9120483 -20.81845 9.123352 -54.50174 -4.209961 -77.19159c-13.333374 -22.68985 -49.825073 -51.930023 -75.79004 -58.94751c-25.965027 -7.0174866 -55.43878 16.140839 -80.0 16.84253z" fill-rule="evenodd"/><path stroke="#f4cccc" stroke-width="12.0" stroke-linejoin="round" stroke-linecap="butt" d="m490.80505 385.96606c-24.561249 0.70166016 -37.660126 -19.416016 -67.36746 -12.632568c-29.707367 6.783478 -91.46152 30.643494 -110.87665 53.333344c-19.41513 22.68985 -14.269012 61.519257 -5.6141663 82.805786c8.654846 21.28653 33.215668 35.556427 57.543304 44.91336c24.327637 9.356995 66.90201 11.929993 88.42258 11.2283325c21.520569 -0.70166016 23.391083 -15.672302 40.700775 -15.438293c17.309723 0.23400879 42.5726 16.374878 63.1575 16.84253c20.584839 0.46759033 44.67932 -3.7440796 60.351685 -14.036743c15.672363 -10.292664 28.770325 -26.900696 33.682434 -47.719177c4.9120483 -20.81845 9.123352 -54.50174 -4.209961 -77.19159c-13.333374 -22.68985 -49.825073 -51.930023 -75.79004 -58.94751c-25.965027 -7.0174866 -55.43878 16.140839 -80.0 16.84253z" fill-rule="evenodd"/><path fill="#ffffff" d="m460.35226 239.9989c-14.503082 -0.46806335 -25.965881 -19.416443 -39.299225 -18.24672c-13.3333435 1.1697388 -38.361755 15.674103 -40.700775 25.26509c-2.3390198 9.591003 13.333313 27.836395 26.666656 32.280853c13.3333435 4.4444275 32.982513 -5.146118 53.333344 -5.6141663c20.35083 -0.4680786 60.81845 10.992981 68.77164 2.8057556c7.953186 -8.187225 -9.590576 -45.84732 -21.05249 -51.929123c-11.461945 -6.0818024 -33.216095 15.906387 -47.719147 15.438309z" fill-rule="evenodd"/><path stroke="#666666" stroke-width="8.0" stroke-linejoin="round" stroke-linecap="butt" d="m460.35226 239.9989c-14.503082 -0.46806335 -25.965881 -19.416443 -39.299225 -18.24672c-13.3333435 1.1697388 -38.361755 15.674103 -40.700775 25.26509c-2.3390198 9.591003 13.333313 27.836395 26.666656 32.280853c13.3333435 4.4444275 32.982513 -5.146118 53.333344 -5.6141663c20.35083 -0.4680786 60.81845 10.992981 68.77164 2.8057556c7.953186 -8.187225 -9.590576 -45.84732 -21.05249 -51.929123c-11.461945 -6.0818024 -33.216095 15.906387 -47.719147 15.438309z" fill-rule="evenodd"/><path fill="#000000" d="m405.61417 250.5328l0 0c0 -6.592621 5.344391 -11.937012 11.937012 -11.937012l0 0c3.1658936 0 6.202118 1.2576447 8.440735 3.4962769c2.238617 2.238617 3.4962769 5.2748413 3.4962769 8.440735l0 0c0 6.592621 -5.344391 11.937012 -11.937012 11.937012l0 0c-6.592621 0 -11.937012 -5.344391 -11.937012 -11.937012z" fill-rule="evenodd"/><path stroke="#434343" stroke-width="8.0" stroke-linejoin="round" stroke-linecap="butt" d="m405.61417 250.5328l0 0c0 -6.592621 5.344391 -11.937012 11.937012 -11.937012l0 0c3.1658936 0 6.202118 1.2576447 8.440735 3.4962769c2.238617 2.238617 3.4962769 5.2748413 3.4962769 8.440735l0 0c0 6.592621 -5.344391 11.937012 -11.937012 11.937012l0 0c-6.592621 0 -11.937012 -5.344391 -11.937012 -11.937012z" fill-rule="evenodd"/><path fill="#000000" d="m485.61417 250.5328l0 0c0 -6.592621 5.344391 -11.937012 11.937012 -11.937012l0 0c3.1658936 0 6.202118 1.2576447 8.440735 3.4962769c2.238617 2.238617 3.4962769 5.2748413 3.4962769 8.440735l0 0c0 6.592621 -5.344391 11.937012 -11.937012 11.937012l0 0c-6.592621 0 -11.937012 -5.344391 -11.937012 -11.937012z" fill-rule="evenodd"/><path stroke="#434343" stroke-width="8.0" stroke-linejoin="round" stroke-linecap="butt" d="m485.61417 250.5328l0 0c0 -6.592621 5.344391 -11.937012 11.937012 -11.937012l0 0c3.1658936 0 6.202118 1.2576447 8.440735 3.4962769c2.238617 2.238617 3.4962769 5.2748413 3.4962769 8.440735l0 0c0 6.592621 -5.344391 11.937012 -11.937012 11.937012l0 0c-6.592621 0 -11.937012 -5.344391 -11.937012 -11.937012z" fill-rule="evenodd"/><path fill="#dd7e6b" d="m365.83728 479.30447l0 0c0 -25.970428 21.053192 -47.02362 47.02362 -47.02362l0 0c12.471436 0 24.432068 4.954254 33.2507 13.772888c8.818665 8.818634 13.772919 20.779266 13.772919 33.250732l0 0c0 25.970428 -21.053192 47.02359 -47.02362 47.02359l0 0c-25.970428 0 -47.02362 -21.053162 -47.02362 -47.02359z" fill-rule="evenodd"/><path stroke="#f4cccc" stroke-width="8.0" stroke-linejoin="round" stroke-linecap="butt" d="m365.83728 479.30447l0 0c0 -25.970428 21.053192 -47.02362 47.02362 -47.02362l0 0c12.471436 0 24.432068 4.954254 33.2507 13.772888c8.818665 8.818634 13.772919 20.779266 13.772919 33.250732l0 0c0 25.970428 -21.053192 47.02359 -47.02362 47.02359l0 0c-25.970428 0 -47.02362 -21.053162 -47.02362 -47.02359z" fill-rule="evenodd"/><path fill="#dd7e6b" d="m485.61417 479.30447l0 0c0 -25.970428 21.053192 -47.02362 47.02365 -47.02362l0 0c12.471436 0 24.432068 4.954254 33.25067 13.772888c8.818665 8.818634 13.772949 20.779266 13.772949 33.250732l0 0c0 25.970428 -21.053223 47.02359 -47.02362 47.02359l0 0c-25.970459 0 -47.02365 -21.053162 -47.02365 -47.02359z" fill-rule="evenodd"/><path stroke="#f4cccc" stroke-width="8.0" stroke-linejoin="round" stroke-linecap="butt" d="m485.61417 479.30447l0 0c0 -25.970428 21.053192 -47.02362 47.02365 -47.02362l0 0c12.471436 0 24.432068 4.954254 33.25067 13.772888c8.818665 8.818634 13.772949 20.779266 13.772949 33.250732l0 0c0 25.970428 -21.053223 47.02359 -47.02362 47.02359l0 0c-25.970459 0 -47.02365 -21.053162 -47.02365 -47.02359z" fill-rule="evenodd"/></g></svg>