<svg version="1.1" viewBox="0.0 0.0 960.0 720.0" fill="none" stroke="none" stroke-linecap="square" stroke-miterlimit="10" xmlns:xlink="http://www.w3.org/1999/xlink" xmlns="http://www.w3.org/2000/svg"><clipPath id="p.0"><path d="m0 0l960.0 0l0 720.0l-960.0 0l0 -720.0z" clip-rule="nonzero"/></clipPath><g clip-path="url(#p.0)"><path fill="#000000" fill-opacity="0.0" d="m0 0l960.0 0l0 720.0l-960.0 0z" fill-rule="evenodd"/><path fill="#999999" d="m336.49213 218.24147l277.88977 0l0 277.88977l-277.88977 0z" fill-rule="evenodd"/><path stroke="#000000" stroke-width="1.0" stroke-linejoin="round" stroke-linecap="butt" d="m336.49213 218.24147l277.88977 0l0 277.88977l-277.88977 0z" fill-rule="evenodd"/><path fill="#ffe599" d="m354.03543 357.18634l0 0c0 -67.04822 54.353333 -121.401566 121.40158 -121.401566l0 0c32.197693 0 63.07666 12.790482 85.84387 35.557693c22.767212 22.767212 35.55768 53.64618 35.55768 85.84387l0 0c0 67.04825 -54.353333 121.40158 -121.40155 121.40158l0 0c-67.04825 0 -121.40158 -54.353333 -121.40158 -121.40158z" fill-rule="evenodd"/><path stroke="#000000" stroke-width="1.0" stroke-linejoin="round" stroke-linecap="butt" d="m354.03543 357.18634l0 0c0 -67.04822 54.353333 -121.401566 121.40158 -121.401566l0 0c32.197693 0 63.07666 12.790482 85.84387 35.557693c22.767212 22.767212 35.55768 53.64618 35.55768 85.84387l0 0c0 67.04825 -54.353333 121.40158 -121.40155 121.40158l0 0c-67.04825 0 -121.40158 -54.353333 -121.40158 -121.40158z" fill-rule="evenodd"/><path fill="#000000" d="m410.17715 287.7139l0 0c0 -6.9753113 5.6546326 -12.629913 12.629944 -12.629913l0 0c3.34964 0 6.562134 1.330658 8.930695 3.6992188c2.3685608 2.3685608 3.6992188 5.5810547 3.6992188 8.930695l0 0c0 6.9753113 -5.654602 12.629944 -12.629913 12.629944l0 0c-6.9753113 0 -12.629944 -5.6546326 -12.629944 -12.629944z" fill-rule="evenodd"/><path stroke="#000000" stroke-width="1.0" stroke-linejoin="round" stroke-linecap="butt" d="m410.17715 287.7139l0 0c0 -6.9753113 5.6546326 -12.629913 12.629944 -12.629913l0 0c3.34964 0 6.562134 1.330658 8.930695 3.6992188c2.3685608 2.3685608 3.6992188 5.5810547 3.6992188 8.930695l0 0c0 6.9753113 -5.654602 12.629944 -12.629913 12.629944l0 0c-6.9753113 0 -12.629944 -5.6546326 -12.629944 -12.629944z" fill-rule="evenodd"/><path fill="#000000" d="m510.38977 287.7139l0 0c0 -6.9753113 5.654602 -12.629913 12.629944 -12.629913l0 0c3.3496094 0 6.562134 1.330658 8.930664 3.6992188c2.3685913 2.3685608 3.6992188 5.5810547 3.6992188 8.930695l0 0c0 6.9753113 -5.654602 12.629944 -12.629883 12.629944l0 0c-6.975342 0 -12.629944 -5.6546326 -12.629944 -12.629944z" fill-rule="evenodd"/><path stroke="#000000" stroke-width="1.0" stroke-linejoin="round" stroke-linecap="butt" d="m510.38977 287.7139l0 0c0 -6.9753113 5.654602 -12.629913 12.629944 -12.629913l0 0c3.3496094 0 6.562134 1.330658 8.930664 3.6992188c2.3685913 2.3685608 3.6992188 5.5810547 3.6992188 8.930695l0 0c0 6.9753113 -5.654602 12.629944 -12.629883 12.629944l0 0c-6.975342 0 -12.629944 -5.6546326 -12.629944 -12.629944z" fill-rule="evenodd"/><path fill="#000000" d="m484.4134 415.5173c-9.356964 -0.29840088 -24.094482 -4.0266113 -33.68506 -7.158081c-9.590546 -3.1314392 -16.84076 -6.7096252 -23.858246 -11.630585c-7.017517 -4.92099 -18.012695 -14.316162 -18.246735 -17.895203c-0.2340393 -3.57901 12.1640625 -4.6228333 16.84253 -3.57901c4.678467 1.0437927 7.0179443 7.3067017 11.2283325 9.841919c4.2104187 2.5352173 6.314972 3.430664 14.034119 5.369385c7.7191772 1.9387207 21.98819 6.710205 32.280853 6.262909c10.292664 -0.44732666 22.691162 -5.5169373 29.475067 -8.946777c6.7838745 -3.42984 6.316284 -10.140869 11.2283325 -11.632263c4.9121094 -1.4914246 17.54242 -0.59680176 18.24408 2.683838c0.70166016 3.2806396 -8.18634 11.78064 -14.034119 17.0c-5.8477173 5.2193604 -13.800964 11.035522 -21.05246 14.316162c-7.251526 3.2806396 -13.099731 5.666107 -22.456696 5.3677063z" fill-rule="evenodd"/><path stroke="#000000" stroke-width="1.0" stroke-linejoin="round" stroke-linecap="butt" d="m484.4134 415.5173c-9.356964 -0.29840088 -24.094482 -4.0266113 -33.68506 -7.158081c-9.590546 -3.1314392 -16.84076 -6.7096252 -23.858246 -11.630585c-7.017517 -4.92099 -18.012695 -14.316162 -18.246735 -17.895203c-0.2340393 -3.57901 12.1640625 -4.6228333 16.84253 -3.57901c4.678467 1.0437927 7.0179443 7.3067017 11.2283325 9.841919c4.2104187 2.5352173 6.314972 3.430664 14.034119 5.369385c7.7191772 1.9387207 21.98819 6.710205 32.280853 6.262909c10.292664 -0.44732666 22.691162 -5.5169373 29.475067 -8.946777c6.7838745 -3.42984 6.316284 -10.140869 11.2283325 -11.632263c4.9121094 -1.4914246 17.54242 -0.59680176 18.24408 2.683838c0.70166016 3.2806396 -8.18634 11.78064 -14.034119 17.0c-5.8477173 5.2193604 -13.800964 11.035522 -21.05246 14.316162c-7.251526 3.2806396 -13.099731 5.666107 -22.456696 5.3677063z" fill-rule="evenodd"/><path fill="#000000" fill-opacity="0.0" d="m345.6181 432.27823l277.88977 0l0 69.480316l-277.88977 0z" fill-rule="evenodd"/><path fill="#000000" d="m357.8056 480.95822l0 -29.578125l11.15625 0q2.953125 0 4.5 0.28125q2.1875 0.359375 3.65625 1.375q1.46875 1.015625 2.359375 2.859375q0.90625 1.828125 0.90625 4.03125q0 3.78125 -2.40625 6.390625q-2.390625 2.609375 -8.671875 2.609375l-7.578125 0l0 12.03125l-3.921875 0zm3.921875 -15.515625l7.640625 0q3.796875 0 5.390625 -1.40625q1.59375 -1.421875 1.59375 -3.984375q0 -1.859375 -0.9375 -3.171875q-0.9375 -1.328125 -2.46875 -1.75q-1.0 -0.265625 -3.65625 -0.265625l-7.5625 0l0 10.578125zm23.096802 15.515625l0 -29.578125l3.640625 0l0 29.578125l-3.640625 0zm23.244293 -2.640625q-2.015625 1.71875 -3.890625 2.421875q-1.859375 0.703125 -4.0 0.703125q-3.53125 0 -5.421875 -1.71875q-1.890625 -1.734375 -1.890625 -4.421875q0 -1.5625 0.703125 -2.859375q0.71875 -1.3125 1.875 -2.09375q1.171875 -0.796875 2.625 -1.203125q1.0625 -0.28125 3.21875 -0.53125q4.40625 -0.53125 6.484375 -1.25q0.015625 -0.75 0.015625 -0.953125q0 -2.21875 -1.03125 -3.125q-1.390625 -1.234375 -4.125 -1.234375q-2.5625 0 -3.796875 0.90625q-1.21875 0.890625 -1.796875 3.171875l-3.546875 -0.484375q0.484375 -2.28125 1.59375 -3.6875q1.109375 -1.40625 3.203125 -2.15625q2.09375 -0.765625 4.859375 -0.765625q2.75 0 4.453125 0.65625q1.71875 0.640625 2.53125 1.625q0.8125 0.96875 1.125 2.46875q0.1875 0.921875 0.1875 3.34375l0 4.84375q0 5.0625 0.234375 6.40625q0.234375 1.34375 0.921875 2.578125l-3.796875 0q-0.5625 -1.125 -0.734375 -2.640625zm-0.296875 -8.109375q-1.984375 0.796875 -5.9375 1.359375q-2.234375 0.328125 -3.171875 0.734375q-0.921875 0.40625 -1.421875 1.1875q-0.5 0.765625 -0.5 1.71875q0 1.453125 1.09375 2.421875q1.09375 0.96875 3.21875 0.96875q2.09375 0 3.71875 -0.921875q1.640625 -0.921875 2.421875 -2.515625q0.578125 -1.21875 0.578125 -3.625l0 -1.328125zm23.281616 2.90625l3.578125 0.453125q-0.578125 3.703125 -3.0 5.796875q-2.40625 2.078125 -5.921875 2.078125q-4.390625 0 -7.078125 -2.875q-2.671875 -2.875 -2.671875 -8.25q0 -3.46875 1.15625 -6.0625q1.15625 -2.609375 3.5 -3.90625q2.34375 -1.3125 5.109375 -1.3125q3.5 0 5.71875 1.765625q2.21875 1.765625 2.84375 5.015625l-3.53125 0.546875q-0.5 -2.15625 -1.78125 -3.234375q-1.28125 -1.09375 -3.109375 -1.09375q-2.734375 0 -4.453125 1.96875q-1.71875 1.953125 -1.71875 6.21875q0 4.3125 1.65625 6.28125q1.65625 1.953125 4.328125 1.953125q2.125 0 3.5625 -1.3125q1.4375 -1.3125 1.8125 -4.03125zm21.351562 0.9375l3.75 0.46875q-0.875 3.296875 -3.28125 5.109375q-2.40625 1.8125 -6.140625 1.8125q-4.703125 0 -7.453125 -2.890625q-2.75 -2.90625 -2.75 -8.125q0 -5.40625 2.78125 -8.390625q2.78125 -3.0 7.21875 -3.0q4.3125 0 7.03125 2.9375q2.71875 2.921875 2.71875 8.234375q0 0.3125 -0.015625 0.96875l-15.984375 0q0.203125 3.53125 2.0 5.40625q1.796875 1.875 4.484375 1.875q2.0 0 3.40625 -1.046875q1.40625 -1.046875 2.234375 -3.359375zm-11.921875 -5.875l11.96875 0q-0.25 -2.703125 -1.375 -4.046875q-1.734375 -2.09375 -4.5 -2.09375q-2.5 0 -4.203125 1.671875q-1.703125 1.671875 -1.890625 4.46875zm20.828491 12.78125l0 -29.578125l3.90625 0l0 12.140625l15.375 0l0 -12.140625l3.921875 0l0 29.578125l-3.921875 0l0 -13.9375l-15.375 0l0 13.9375l-3.90625 0zm27.908356 -10.71875q0 -5.953125 3.3125 -8.8125q2.765625 -2.390625 6.734375 -2.390625q4.421875 0 7.21875 2.90625q2.8125 2.890625 2.8125 8.0q0 4.140625 -1.25 6.515625q-1.234375 2.359375 -3.609375 3.671875q-2.359375 1.3125 -5.171875 1.3125q-4.5 0 -7.28125 -2.875q-2.765625 -2.890625 -2.765625 -8.328125zm3.734375 0q0 4.125 1.796875 6.171875q1.796875 2.046875 4.515625 2.046875q2.703125 0 4.5 -2.0625q1.796875 -2.0625 1.796875 -6.28125q0 -3.96875 -1.8125 -6.015625q-1.796875 -2.046875 -4.484375 -2.046875q-2.71875 0 -4.515625 2.046875q-1.796875 2.03125 -1.796875 6.140625zm20.515991 10.71875l0 -29.578125l3.640625 0l0 29.578125l-3.640625 0zm23.166138 0l0 -2.703125q-2.03125 3.1875 -5.984375 3.1875q-2.5625 0 -4.71875 -1.40625q-2.140625 -1.421875 -3.328125 -3.953125q-1.1875 -2.53125 -1.1875 -5.8125q0 -3.21875 1.0625 -5.828125q1.078125 -2.609375 3.21875 -4.0q2.140625 -1.40625 4.78125 -1.40625q1.9375 0 3.453125 0.828125q1.515625 0.8125 2.46875 2.125l0 -10.609375l3.609375 0l0 29.578125l-3.375 0zm-11.484375 -10.6875q0 4.109375 1.734375 6.15625q1.734375 2.03125 4.109375 2.03125q2.375 0 4.03125 -1.9375q1.671875 -1.953125 1.671875 -5.953125q0 -4.40625 -1.703125 -6.453125q-1.6875 -2.0625 -4.171875 -2.0625q-2.421875 0 -4.046875 1.984375q-1.625 1.96875 -1.625 6.234375zm35.23474 3.78125l3.75 0.46875q-0.875 3.296875 -3.28125 5.109375q-2.40625 1.8125 -6.140625 1.8125q-4.703125 0 -7.453125 -2.890625q-2.75 -2.90625 -2.75 -8.125q0 -5.40625 2.78125 -8.390625q2.78125 -3.0 7.21875 -3.0q4.3125 0 7.03125 2.9375q2.71875 2.921875 2.71875 8.234375q0 0.3125 -0.015625 0.96875l-15.984375 0q0.203125 3.53125 2.0 5.40625q1.796875 1.875 4.484375 1.875q2.0 0 3.40625 -1.046875q1.40625 -1.046875 2.234375 -3.359375zm-11.921875 -5.875l11.96875 0q-0.25 -2.703125 -1.375 -4.046875q-1.734375 -2.09375 -4.5 -2.09375q-2.5 0 -4.203125 1.671875q-1.703125 1.671875 -1.890625 4.46875zm20.203491 12.78125l0 -21.4375l3.265625 0l0 3.25q1.25 -2.28125 2.3125 -3.0q1.0625 -0.734375 2.328125 -0.734375q1.84375 0 3.734375 1.171875l-1.25 3.375q-1.328125 -0.78125 -2.671875 -0.78125q-1.1875 0 -2.140625 0.71875q-0.9375 0.703125 -1.34375 1.984375q-0.609375 1.9375 -0.609375 4.234375l0 11.21875l-3.625 0z" fill-rule="nonzero"/></g></svg>